<?xml version="1.0" encoding="utf-8"?>
<!-- Generator: Adobe Illustrator 25.3.1, SVG Export Plug-In . SVG Version: 6.00 Build 0)  -->
<svg version="1.1" id="Layer_1" xmlns="http://www.w3.org/2000/svg" xmlns:xlink="http://www.w3.org/1999/xlink" x="0px" y="0px"
	 viewBox="0 0 390 314" style="enable-background:new 0 0 390 314;" xml:space="preserve">
<style type="text/css">
	.st0{clip-path:url(#SVGID_2_);fill:#9B8579;}
	.st1{clip-path:url(#SVGID_2_);fill:#231F20;}
</style>
<g>
	<defs>
		<rect id="SVGID_1_" x="-102" y="-60" width="612" height="792"/>
	</defs>
	<clipPath id="SVGID_2_">
		<use xlink:href="#SVGID_1_"  style="overflow:visible;"/>
	</clipPath>
	<path class="st0" d="M347.4,180.4c0,0,8.3-1.2,9.4-8.9c1.1-7.8-4.9-9.6-6.4-9.7c-1.5-0.1-5.7,1-3,6c0,0-1-3.9,3.1-2.9
		C354.5,165.8,356.3,174.4,347.4,180.4"/>
	<path class="st0" d="M280.8,115.5c-4.5,0-8.1-3.6-8.1-8.1c0-4.5,2.9-7.8,7.4-7.8c4.5,0,8.2,3.5,8.2,8
		C288.2,112.1,285.2,115.5,280.8,115.5 M272.6,97.4c-0.2,3-1.5,6-5.9,6c-4.2,0-4.3-6.1-2.5-5.9c0,0,0.5-1.7,1.4-1.5
		c0.9,0.2,2.8,0.3,3.3-1.7c0,0-0.5,0.5-1.5,0c-1-0.5-3-1.6-4.8-0.8c-1.8,0.8-2.7,3.6-2.1,5.6l-7.8-6.5c0,0,8.5-6.7,9.6-19.8
		c0,0,1.8,6.3,4.6,10.4C269.9,87.4,272.8,94.6,272.6,97.4 M299,162.3c0,12.5-7.8,18.1-7.8,18.1l0.1-4.3c0,0,5.4-4.2,5.3-14.4
		c-0.1-9-7.6-12.3-7.6-12.3l-1.1-4.6C287.8,144.8,299,149.8,299,162.3 M289.5,152.2c0,0,5.5,4.4,5.3,10.3c-0.2,6-3.6,10.8-3.6,10.8
		S291.6,159.9,289.5,152.2 M280.5,228.3l-2.6,0.7c1-3.1,0-6.7,0-6.7l2.3-3.9C281.8,222.9,280.5,228.3,280.5,228.3 M260.3,244.4
		l2.9-3c0,0,10.5-0.7,14.3-11l2.7-0.7C280.1,229.7,276.1,243.3,260.3,244.4 M269.4,234.7c0.8-0.5,4.8-3.3,5.8-3.4
		c0,0-3.1,6.9-10.1,8C265.1,239.3,268.6,235.2,269.4,234.7 M276.4,224.7c0,0,0,3.7-0.5,4.9c0,0-3.2,1.8-4.4,2.2L276.4,224.7z
		 M251.5,253.4l-3.1,0.2l3.1-2.3V253.4z M228.7,270.5l1.2-2.1c0,0,13.8,2,17.9-11.9l3.4-0.3C251.1,256.2,247.7,272.5,228.7,270.5
		 M224.7,265l6.4-2.1c0,0-2.5,2.9-2.9,3.7C228.2,266.5,225.8,266,224.7,265 M226,270.1c-4.1-1-7.5-3.4-7.5-3.4l3.8-1
		c1.2,0.9,4.9,2.1,4.9,2.1L226,270.1z M224.2,274.1c0,0-0.8-2.4-5.7-2c-4.9,0.4-5.3,5-4.7,6.3c0.6,1.3,1.8,2,3.1,1.9
		c1.2-0.1,1.4-1.5,1.2-2.3c-0.2-0.8,1.1-0.8,1.7-0.6c0.6,0.1,3.3,2.4,0.8,6c-2.5,3.5-11.4,4.1-13.3-5c-0.6-2.9,0-4.8,0.5-6.3
		c1-3.1,3-3.8,3-3.8l4.7-0.8c0,0,5.7,4.2,9.6,4.7L224.2,274.1z M245.6,256.8c0,0-2.8,10.9-14.7,10.1
		C230.9,266.9,235.9,259,245.6,256.8 M204,283c-0.1,0.9-2,10.2-10.6,10.1c-8.6-0.1-9.7-7.7-8.3-10.6c1.5-2.9,4.6-2.6,5.6-2.1
		c1.7,0.9,1.2,1.3,0.8,1.9c-0.5,0.6-2.1,1.3-1.9,2.6c0.2,1.3,1.3,2.6,3.8,2c3.2-0.7,7.1-7.9-1.8-12c0,0,4.1-3.4,5.6-5.7l7.9-0.5
		c0,0-2.1,4.3-2.1,7.4C203,279.3,204.1,282.2,204,283 M162.4,269.5c-7-6-11.5-12.8-11.5-12.8l8.5,4.4c2.4,6.4,7.9,12.1,18.5,14
		c6.1,1.1,16.3-5.8,16.3-5.8l1.9,0C182.4,280.9,171.4,277.3,162.4,269.5 M166.1,263.9c0,0,3.3,5.4,9.4,6.5s10.4-1.6,10.4-1.6
		l4.7,0.2c0,0-6.1,6-15.6,3.5c-9.5-2.5-12.4-10.1-12.4-10.1L166.1,263.9z M183,268.2c0,0-7.9,3-14.1-3.4
		C168.9,264.8,176.8,267.5,183,268.2 M122.7,242.6c-3.3-2.4-5.1-0.9-5.7-0.1c-0.4,0.6-0.7,2.8,0.6,3.2c1.3,0.4,1.2-0.5,2.2-0.4
		c1,0.1,1.5,3.5-2.3,3.4c-3.8-0.2-4.8-3.3-4.8-4.9c0-1.6,1.1-7,6.6-7s11.1,3.8,11.1,3.8l6.4,5.3
		C127.2,241.1,122.7,242.6,122.7,242.6 M244.6,84c0,0-1.8-3.8-5.7-6.1c-3.5-2.1-9-3.2-14,0.4l-3.6-1.2c0,0,1.3-1.3,3.9-2.2
		c5.3-1.8,14.7-2.5,21.4,8.9L244.6,84z M226.8,78.9c0,0,2.1-1.2,4.8-1.3c3.6-0.2,8.3,1.1,11.2,6.4C242.9,84,239,84,226.8,78.9
		 M365.7,72.6c0,0-3.2-3.3-6.3,0.5c0,0-0.4-3.6-3.9-3.9c-3.5-0.3-4.8,4.3-4.8,4.3s2.1-3.6,5-2.5c2.9,1.1,2.4,5.5,2.8,6.7
		c0.4,1.2,2.4,4.1,6,4.1c3.6,0,8.2-2.9,8.1-9.8c-0.1-6.9-7.4-11.1-12.5-11.1c-3.3,0-7.7,1.1-12.3,4.1c-4.4,2.9-8.4,7.8-9.7,9.1
		c0,0,5.2-17.3,0.8-32c-2-6.7-7-13.5-13.3-17.7c-9.4-6.3-22.8-6.2-28.9,2.6c0,0-3.6,2.3-5.8,1.5s-3.2-2.7-3.2-4
		c-0.1-1.3-0.2-2.9-0.7-3.4c-0.5-0.5-3.1-3,0.2-6.5c0,0-6.5,3.2-4.5,11.8c2,8.6,12.6,4.5,14,1.2c0,0,1-0.1,0.7,0.6
		c-0.2,0.7-5.5,9.9-12.6,9.7c-7-0.2-10.1-5.4-9.1-8.6c1.1-3.2,2.5-4.4-0.5-5.7c-3-1.4-6.1,2.5-6.2,6.5c-0.1,3.7,4.4,10,11.9,10.2
		c3.7,0.1,8-1.1,13-5.6c0,0,0.2,0,0.1,0.5c-0.1,0.4-3.3,9.1,4.8,14c4.8,2.9,9.5,1.7,12.2-0.9c1.8-1.7,2.7-4,2.7-5.5
		c0.1-3.9-2.3-8-6.6-8.2c-4.4-0.2-5.5,3.3-5.6,4.6c-0.1,1.6,0.8,3.9,3.3,3.6c2.5-0.3,1.6-2.6,1.5-2.9c-0.1-0.2,0.3-0.9,1-0.9
		c0.9,0,3.6,1.1,2.2,5.2c-1.5,4.3-7.5,3.6-9.2,2.5c-0.9-0.6-3.8-2.7-4.2-6.4c-0.4-3.3,1.4-8.1,3.8-10.8c0,0,4.6-6.7,13.2-5.9
		c2.9,0.3,8.4,1.8,13.2,6.1c8.4,7.4,15.8,22.1,7,44c-1.4,3.4-3.5,6.5-5.8,10.3c0,0-7.6-6.6-18.8-5c0,0-1.5-4.4-3.7-6.8
		c-2.2-2.4-3-11.4,3.2-13.3c2.3-0.7,4.5-0.2,5.8,0.9c2.3,2,2.2,6.2-0.6,6.4c-1.9,0.2-0.9-1.4-0.9-1.4s0.9-1.9-1.4-2.2
		c-2.3-0.3-3,2.4-2.9,3.7c0.2,1.3,1.8,3.6,4.8,3.6c3,0,5.8-2.4,5.8-7c0-3.8-4.4-6.9-8-7c-4.3,0-11.2,3.8-9.2,13.2
		c0,0-6.7-4.1-13.3-0.7c-6.6,3.4-5.3,13.7,2.2,13.9c4.1,0.1,5-2.2,5-3.3c0-1.1-0.4-2.7-2.4-2.8c-2.1,0-2.4,3.1-0.8,3.6
		c0,0-3.5,0.6-3.8-3c-0.1-1.6,1.2-4.4,3.8-4.9c3.5-0.6,9,1.1,10.7,8.5c0,0-7,3.3-11.6,10.4c-0.8,1.2-1.6,2.2-2.2,3.6
		c0,0-12.6-2.1-19.5-14.9c-2.1-3.9-3.9-7.8-4.4-10.9c-0.8-5.7,2.4-11.1,7.4-11.3c5.6-0.3,6.3,4.6,6.3,5.5c0,0.8-0.7,3.5-3.4,3.5
		c-1.9,0-1-1.4-0.8-1.6c0.2-0.2,0.7-0.4,0.7-1.1c0-0.8-0.4-1.9-2.3-1.9c-1.9,0-3.2,2.1-2.7,4.4c0.5,2.3,2.2,3.7,5.5,3.7
		c3.4,0,6.1-3.6,6.1-6.7c0-3.1-2.5-8.4-8.8-8.4c-6.3,0-10.1,6.7-10.1,9c0,2.2-0.2-10.1-11.9-12.5c0,0-6.9-4.2-5.4-11.3
		c1.5-7.1,7.3-8.4,9.5-8.3c2.5,0.2,5.9,2.2,5.9,6.4c0,2.8-2.7,3-3.6,2.6c-1.2-0.5,0.2-2.2-1.5-2.9c-1.6-0.6-3.2,0.5-3.5,1.9
		c-0.3,1.4-0.1,6.6,5.9,6.6c6,0,7.6-6.6,7.6-8.6S264.7,27,254.2,27c-4.8,0-9.1,3.2-11.1,7.6c-2.4,5.3-1.9,12.2,2.5,16.3
		c0,0-4.9,1.3-7.3,5.1c0,0-6.6-12.6-1.6-26.3c5-13.7,16.8-15.5,20.2-13.8c1.3,0.7,3,1.9,4.2,3.3c2,2.4,3.5,5.1,6,5.1
		c3.9,0,2.3-6.2-1.4-8.5c-3.8-2.5-12.7-5.3-20.8,0.6c0,0-12.4,8.1-11,26.2c0.3,4.2,1.7,8.8,3.8,14.2c0,0-2.8,4.5-1,9.2
		c1.7,4.8,5.1,6.6,9.8,6.4c4-0.2,6.6-4.4,5.9-7.8c-0.6-3.3-4.5-3.7-5.7-2.6c-1.1,1-0.7,2.2-0.3,2.6c0.4,0.5,1.9,1.6-0.3,2.5
		c0,0-2.6,0.9-4.1-1.3c-1.5-2.2-1.5-4.2-0.7-6c0.8-1.8,3.4-5.4,9.9-4.7c4.1,0.5,7.5,4.3,8.2,9.4c0.8,6.2-2.3,14.1-10.8,18.6
		c0,0-4.3-7.6-11.3-10.1c-7.1-2.6-15-0.7-19.1,3.3l-1.6-0.3c0,0,5.9-2.3,7.1-9.7c1.1-7.4-6.2-14.5-16.8-13.2c0,0,4.3-3,7.3-3.1
		c3.1-0.1,5,0.7,7.5,2c2.5,1.3,6.3,0.6,7.6-0.9c1.3-1.5,2-4.3-3.6-6.3c0,0,18-13.8,2.7-32c0,0,6.4,9.7,3.1,17
		c-1.4,3-3.7,6.1-6.8,8.5c-4.4,3.4-10,6-14,8.5c-6.9,4.3-14.3,10.4-16.1,20c0,0-1.6-2.1-2.4-3.2c-0.9-1.1-1.9-5.1-0.8-8.1
		c1.2-3,2.9-5,5.3-5.2c2.3-0.2,4.5,1.2,2.7,4c0,0,0.8-0.5,1.1-0.6c0.3-0.1,1.8-1.2,1.4-3.2c-0.5-2-2.6-3.5-5.6-3.4
		c-3.2,0.1-10,4.2-6.8,14.4c0,0-4.7-1.9-8.4,0.6c-3.7,2.5-3.8,7.2-2.7,9.2c1,2,3.1,3.5,6.1,3.4c2.9-0.1,5.3-3.7,3.6-6.3
		c-1.7-2.6-4.3-1.4-4.4-0.1c-0.1,0.9,0.1,1.5,0.8,1.7c0.7,0.2,1,1.1-0.2,1.4c-1.1,0.3-4.2,0-3.9-3.6c0.3-3.6,4-5.5,6.9-4.8
		c2.8,0.7,5.7,3.4,7.6,10.9c0,0,0.1,0,0.1,0c0.1-0.4,0.4-1.8,0.3-4.2c-0.2-3-0.1-3.6,1-6.2c1.1-2.6,3.5-6.1,7-7.8
		c3.6-1.8,11.4-2.8,16.2,2.6c4.7,5.4,1.6,15.1-5.7,14.8c-7.3-0.3-7.4-11.4-1-10.3c2.8,0.5,0.8,3.4,0.8,3.4s-1.5,1.9,0.4,2.5
		c1.9,0.7,3.9-2.2,3.6-4.3c-0.4-2.4-2.5-5.7-7.2-5.6c-5,0.1-7.7,4.7-7.7,7.3c0,2.6,0.4,5.9,3.7,8c0,0-4.4-0.6-11.5-0.3
		c0,0.1,0,0.2,0,0.2c0-0.1,0-0.1,0-0.2c-18.5,0.8-55.2,7.8-78.6,47.7v3.5c15.5-28.8,45.3-48.4,79.7-48.4c50.2,0,90.9,41.8,90.9,93.4
		c0,51.6-40.7,93.4-90.9,93.4c-34.3,0-64.1-19.5-79.6-48.2l-0.2-0.4v0.5v6c0,0,6.4,9.7,10.6,14.5c0,0-6.9-2.7-11.2-0.4
		c-4.3,2.3-5.7,6.2-5.2,9.8c0.5,3.6,4.1,7.2,9,6.4c4.9-0.8,5.6-6.3,4.3-8.3c0,0,11.4,2.2,16,11.2c4.6,9.1-1.1,21.2-10.5,21.8
		c-9.4,0.6-13.1-8.2-10.5-12.9c2.3-4.3,5.9-4.6,9.1-3.6c3.8,1.2,3.5,6.8,0.5,6.8s-3-1-4.3-0.3c-1.3,0.8-0.3,4,3.7,4.5
		c4,0.5,7.6-4.3,7.6-8.4c0-4-3.4-10.2-10.7-10.2c-7.3,0-10.9,6.5-11.4,10.4c-0.6,4.4,0.1,9.7,5.1,13.2c5,3.6,11.7,4.6,19-0.4
		c7.3-5,6.8-17.3,3.9-21.8c0,0,5.2,3.5,6.4,7.4c1.2,3.9,0.9,7.4,0.4,9.3c-0.4,1.8-1.3,7.1,2.6,9.4c3.9,2.4,6.2-0.5,6.7-1.5
		c1.4-2.5,0-7.3,0-7.3s5,7,12.2,8.6c7.2,1.6,12.1-0.1,12.1-0.1s-2.5,4.2-0.6,9.2c1.9,5.1,4.9,7.9,12.6,8.5
		c9.1,0.6,13.7-9.6,13.7-9.6s2.2,12.3,15.8,12.1c13.6-0.2,18.1-11.5,19.5-15.3c1.4-3.8,0-5.9-0.9-6.1c-0.9-0.2-2.6,0.8-3.4,3
		c-0.8,2.2-2.2,8.7-4.1,11.2c-1.9,2.5-5.7,6.2-12.4,5.8c-6.8-0.3-12-5.1-13.2-10.7c0,0,3.4,2.9,8.7,2.6c5.3-0.3,8.9-3.1,9.9-7.3
		c1-4.1-0.6-6.5-0.6-6.5l1.5-4c0,0,19.8,3.8,26.5-16.3c0,0,12.2,2.5,12.5,8.3c0.3,5.2-3.2,6.6-6.1,6.5c-2.9-0.1-3.4-4.4-1.9-4.4
		c1.5,0,0.4,1.3,2.4,1.2c2-0.1,1.8-4.5-1.5-4.9c-3.3-0.3-5.1,1.9-5.2,4.6c-0.1,2.7,1.6,6.2,6.6,6.4c5,0.2,7.9-4.6,7.9-8.3
		c0,0,2.1,3.7,1.6,7.6c-0.4,3.4-3.1,7.9-6.4,6.1c0,0-1.6,0.9-2.8,0.7c-2.1-0.3-2.6-3.6-5.4-3.7c-2.8-0.1-3.9,1.1-3.9,1.1
		s2.1-0.2,2.5,1.1c0.3,1.3,0.5,8.4,8.4,8.3c7.9-0.1,11.1-8.1,11.3-12.7c0.2-4.6-1.6-17.5-19.7-20.5c0,0,0.2-3.1-0.2-4.4
		c0,0,2.6-2,3.4-2.7c0,0,19.3,1.1,25.2-17.5c0,0,7.5-0.6,13.9,3.2c5.5,3.3,10.5,10,9.9,19.6c-0.6,11.1-11.3,16.9-18.1,16.7
		c-6.8-0.2-15.7-5.8-14.8-16.2c0.7-8.9,8.5-11.1,12.7-10.6c3,0.3,6.9,2.8,7.6,6c0.7,3.4-0.1,8.8-5,8.6c-2.8-0.1-3.3-1.5-3.4-2.4
		c-0.1-0.9,0.4-1.7,1.2-1.6c0.8,0.1,2.3,0,2.3-1.6c-0.1-1.6-1.4-2.9-3.2-2.9c-1.8,0-5.3,1.6-5.3,5.3c0,3.7,2.6,7.8,8.4,7.9
		c5.8,0.1,10.3-6,9.9-11.1c-0.4-5.1-4.7-12.1-13.1-12.2c-8.4-0.1-12.6,5.9-14.3,9.9c-1.6,4-1.6,12.6,3.3,17.5c4.9,5,8.5,6,14.2,6.2
		c6.8,0.2,18.9-5.5,19.9-19c0.8-10.1-4.3-15.4-4.3-15.4s4.8,2.6,5.8,3c0,0,2.3,4.9,2.3,5.7c0,0.8,0.5,3.4,1.3,4.9
		c0.7,1.5,0.5,7,0.3,9.1c-0.1,1.1-1.2,8.1-4.9,13.4c-2,2.8-4.6,5.4-7.5,7c-2.6,1.4-5.4,1.9-7.9,1.9c-5.1,0-7.5-5.3-8.2-6.4
		c-0.7-1.1-2.1-3.5-4.6-3c-2.5,0.5-2.6,3-1.7,4.9c0.9,1.9,3.7,6.5,11.8,6.8c8.8,0.3,25.2-5.4,23.9-32c0,0,3.6,4.3,9.2,3.6
		c5.6-0.8,7.1-4.7,6.5-7.2c-0.5-2.5-2.5-3.2-3.6-2.7c-1.1,0.5-1.5,0.9-1.9,0.9c0,0,2.8,0,2.9,1.3c0.1,1.3-0.8,4.8-5.3,4.8
		c-4.5,0-7.8-3.3-9-6.2c-1.1-2.9-2.5-6.2-2.5-6.2s7.4,3.7,19.8,3.4c12.4-0.3,27.9-7.5,32.7-24.1c4.5-16-8.3-25.1-14.3-24.8
		c-4.9,0.3-5.5,2.5-5.5,3.9c0,0,0,2.7,3.1,3.1c3,0.4,6.2-1,7.6-0.5c1.4,0.5,10.1,2.8,7.9,17.5c-2.2,14.7-26.5,35.1-58.6,16.9
		c0,0,12.3-5.7,11.2-18.4c-1.2-13.4-12.4-14.4-15.8-16c-3.8-1.8-7-6.7-5.4-12c1.6-5.3,6-5.8,7.6-5.9c2.4-0.2,7.1,1.7,4.3,6.7
		c0,0-0.7-5.3-5.3-4.1c-3.8,1-3.1,5.2-2.1,6.5c1,1.3,3.2,3,6.8,2.7c3.6-0.3,5.8-3.6,5.5-7.7c-0.3-4.1-3.2-7.7-9.7-7.7
		c-6.2,0-10.4,6.6-10.5,11.3c-0.1,4.7,3.3,10.1,5.3,11c0,0-10.6,2.6-11,12.3c-0.3,9.7,7.2,12.1,11.7,12.1c4.5,0,7.7-4.2,7.7-7.9
		c0-3.7-3.2-7.2-7.6-7.2c-4.4,0-5.6,3.2-5.6,4.8c0,1.6,1,4.2,4.2,4.2c2.6,0,4.1-1.4,4-3c0,0,0.9,4.9-3.7,5c-4.6,0.1-7.8-3.7-7-9.7
		c0.9-6,7.8-8.2,11.7-8.1c4.4,0.1,12.3,4.3,12.8,12.4c0.6,9.4-5,15.4-10.5,17.9c0,0-7.3-8.3-19.6-7.2c0,0,1.3-8.5-1.4-13
		c0,0,6.2-11.1,9-30.9c0,0,12.4-9.1,10-25.9c-1.9-13.4-14.3-16.8-14.3-16.8s-4-11.6-5.9-14.9c-2-3.3,1.6-6.7,1.9-6.9
		c0.3-0.2,5.8-5.1,10.7,0.3c2.2,2.4,2.3,4.9,2.2,6.4c-0.2,2.3-1.6,2.8-2.8,3c-2.1,0.3-4.6-1.5-2.6-5.2c0,0-3.5,2.3-3.2,5.6
		c0.3,3.3,3.2,5.6,7,5.5c3.8-0.1,8.6-3.7,6.7-10.1c0,0,4.9,2.3,8,3.3c3.2,1,12.8,4.7,14.3,6.7c0.7,1,2.1,3.2,1.7,5.9
		c-0.4,2.8-2.7,6-6.4,6.2c-6.5,0.3-6.1-5.7-4.9-7.3c1.2-1.6,3.4-3,5.6,1.7c0,0,2-7.2-4.5-9.1c-6.5-1.9-10.4,0.6-12,2.1
		c-0.8,0.7-3.3,3.8-4.1,7.6c-1.1,5.3,0.5,12.2,10.7,16.4c0,0-5.5,5.2-4.1,12.8c1.5,7.6,7.6,14.2,17.9,14.2
		c10.3,0,15.7-11.7,7.4-14.5c0,0,1.2,1.2,1.5,2.8c0.3,1.9-0.4,4.3-3.6,4.4c-2.9,0.1-4.5-2.8-4.5-5c0-2.2,1.7-9.1,9.6-8.7
		c7.9,0.4,11.4,13,11.2,18.1c0,0-16,2.2-23.1,11.6c-7.1,9.4-6.1,25-0.1,32.3c2.8,3.4,6.4,7.2,14.6,7.6c6.9,0.3,14-3.7,15.3-10.8
		c2.5-13.2-11.7-18.4-18.5-12.4c-3.2,2.8-2.6,8,1.9,8c3.3,0,4.6-5.5,0.7-6.4c0,0,4.9-1.6,8,0.4c1.2,0.8,3.5,3,3.9,6.3
		c0.7,5.2-1.9,12-11.9,12c-15.3,0.1-15-19.1-10.3-24.6c4.7-5.5,7.8-7,10.8-8.4c3-1.4,10.5-5.3,10.1-13.1c0,0,22.8-5.8,22.8-28.7
		c0-13.6-10.7-23.2-22.3-22.5c-7.6,0.4-15.1,8.6-10.8,16.4c2.1,3.9,6.4,3.4,8,3.7c1.6,0.3,1.1,2.2,1.1,2.2s2.4-3.9-1-6.6
		c-3.4-2.6-2.5-4.2-1.8-5.2c0,0-1.3-1.5-0.3-2.9c1-1.4,4.9-6,13.7-3.1c0,0-7.8,0.5-7.8,8.9c0,3.1,2.3,6.3,7.3,5.8
		c2.6-0.2,4.2-2.6,3.8-5.3c-0.2-2-2.2-2.7-3.5-2.5c-1.1,0.1-1.5,0.9-1.5,1.9c0,0.8,1.8,1.5,1.6,2c-0.2,0.5-0.9,0.9-2.4,0.8
		c-1.5-0.1-3.7-2.9-1.9-6c1.8-3,5.4-3.2,7.1-2.7c1.7,0.5,8.8,4.7,7.9,18.5c-0.9,13.8-14.8,21.1-19.7,22.7c0,0-1.5-22.3-17.6-22.3
		c-13.7,0-15.4,14-8.9,18.6c1.2,0.8,2.7,1.7,4.2,1.9c0,0-3.1,1.1-6.3-0.4c-2.7-1.3-5.6-4.8-6.5-7.8c-0.7-2.1-1.5-7,0.2-10.1
		c1.3-2.4,4.7-3.5,6.4-5c0,0-2.6-0.5-4.7-0.9c-2.1-0.3-9.5-2.4-10.6-10.1c-1.1-7.8,6.1-11.8,11.6-10.6c0,0-5.7,2.3-6.2,6
		c-0.5,3.7,2.3,9.9,10.3,10.1c7.9,0.2,13.1-4.9,13.2-12.1c0.1-7.2-5.1-12-9.6-13.2c-4.5-1.2-18.7-2.8-23.5-8.7
		c-4.9-5.9-7.6-10.3-6.6-18.8c1-8.5,9-16.1,18.9-16.1c7.6,0,12.4,2.6,13.1,3.6c0.7,1,6.6,6.3,5.8,16.4c-0.9,10-7.9,12.5-11.7,12.6
		c-3.8,0.2-5-2.2-4.6-3.3c0,0-1.9-1.5-1.7-3c0.2-1.5,1.2-2.4,1.2-3.9c0-1.5-1.4-3.6-2.8-4.2c0,0,1.2,1.9-0.1,2.8
		c-1.3,0.9-4.5,3.1-4.3,7c0.2,3.8,3.1,8.4,11.3,8.6c8.2,0.2,14-8.4,14.8-13.5c0.9-5.2,0-12.5-3.3-17.4L331,88
		c0,0-1.6,14.5,11.8,17.3c0,0,1.1,0.3,1.3,0.6c0.2,0.3,5.2,4.4,3.9,11.2c-1.3,6.8-6.6,7.7-9.5,7.7s-6.6-3.6-5.7-6.5
		c0.9-2.9,2.1-2.9,2.8-2.8c2.2,0.4-0.2,3.2,2.4,3.6c1.8,0.3,3.8-1.7,3.4-4.2c-0.4-2.5-2.3-4.9-6.3-4.9c-4.1,0-7.4,4.2-7.6,7.9
		c-0.1,3.1,1,11.1,11.7,11.4c0,0,3.8,0.1,7.3-2.5c4.7-3.6,8.8-11.3,2-21.5c0,0,9.4-1.3,9.4-12.9c0-4.5-5-9.2-10.2-8.5
		c0,0-6.4,1.2-5.9,6.5c0.4,5.3,3.9,4.6,4.6,4.5c0.7-0.1,1.8-1,1.8-2.1c0-1.1-1.7-1.9-1.2-3c0.7-1.5,5.6-2.3,6.3,4.4
		c0.5,5.2-6.2,7.1-8.9,6.9c-3.1-0.2-13.9-4.3-8.2-17.7c2-4.7,5.3-8.1,8.5-11c6-5.4,11.2-8.2,15.4-8.2c4.6,0,9.8,3.2,9.6,7.7
		c-0.2,4.5-3.2,6.9-5.5,6.9C361.5,79,356.9,72.9,365.7,72.6"/>
	<path class="st1" d="M33.5,146.2c-1.3,1.3-3.4,2-6,2.2l0,0c-0.4,0-1,0-1.7,0h-1.9v-3.8c0-1.2,0-2.4,0-3.8c0-1.3,0-2.5,0.1-3.6
		c0-0.5,0-1,0.1-1.4c0-0.3,0-0.6,0-0.9v0c0-0.2,0-0.4,0.1-0.5c0,0,0,0,0-0.1c0.2,0,0.4-0.1,0.7-0.1c0.5-0.1,1.1-0.1,1.7-0.1
		c2.1,0,3.9,0.3,5.2,0.9c1.1,0.5,2,1.3,2.7,2.4c0.7,1.1,1.1,2.3,1.1,3.8C35.5,143.3,34.9,144.9,33.5,146.2 M33.6,164.3
		c-0.9,0.5-1.9,0.8-2.9,0.9c-1,0.1-2,0.2-2.9,0.2c-1,0-1.7-0.1-2.2-0.3c-0.4-0.2-0.8-0.4-1-0.6c-0.3-0.4-0.5-0.9-0.5-1.5
		c-0.1-0.7-0.1-1.7-0.2-2.9c0-0.5,0-1.1,0-1.9c0-0.7,0-1.6,0-2.4v-5.1h3.9c0.9,0,1.7,0,2.3,0.1c0.6,0.1,1.3,0.2,1.9,0.4
		c0.8,0.3,1.5,0.6,2.2,1.1c0.6,0.4,1.2,1,1.7,1.6c0.5,0.6,0.9,1.3,1.1,2c0.3,0.7,0.4,1.5,0.4,2.3c0,1.4-0.3,2.7-1,3.7
		C35.7,162.9,34.8,163.7,33.6,164.3 M41.3,151.1c-0.9-0.8-2-1.4-3.2-1.8c-0.3-0.1-0.7-0.2-1-0.4c1.2-0.5,2.3-1.2,3.1-2
		c1.5-1.4,2.3-3.3,2.3-5.5c0-2.1-0.6-3.8-1.7-5.1c-1.1-1.3-2.6-2.3-4.3-2.9c-1.1-0.4-2.2-0.7-3.3-0.8c-1.1-0.1-2.3-0.2-3.5-0.2H12.9
		h-0.1v1.9l0.7,0.1c0.8,0.1,1.4,0.2,1.8,0.4c0.4,0.1,0.8,0.4,1.1,0.8l0,0c0,0,0.2,0.2,0.3,0.6c0.1,0.4,0.2,0.8,0.3,1.4
		c0.1,0.5,0.1,1.1,0.2,1.6c0,0.6,0,1.1,0,1.7c0,0.9,0,1.8,0,2.5c0,0.7,0,1.4,0,2.1v7.3c0,0.9,0,1.8,0,2.7c0,1,0,1.8,0,2.5
		c0,0.7,0,1.3,0,1.8c0,0.5,0,1,0,1.5c0,0.5-0.1,1-0.2,1.4c-0.1,0.5-0.2,0.8-0.2,1.2c-0.1,0.3-0.2,0.5-0.2,0.5
		c-0.4,0.4-0.8,0.7-1.5,1c-0.7,0.3-1.4,0.5-2.1,0.6l-0.6,0.1v1.8h17.2c1.4,0,2.9,0,4.4-0.1c1.6-0.1,3-0.4,4.2-0.8
		c0.8-0.3,1.5-0.7,2.3-1.2c0.7-0.5,1.4-1.2,2-1.9c0.6-0.7,1.1-1.6,1.5-2.6c0.4-1,0.6-2.1,0.6-3.3c0-1.4-0.3-2.6-0.9-3.7
		C43,152.8,42.2,151.9,41.3,151.1"/>
	<path class="st1" d="M68.5,164.1c-0.5-0.2-0.9-0.4-1.2-0.6c-0.1,0-0.1-0.1-0.1-0.1c0,0,0-0.1,0-0.3v-19.3h-9.5v1.9l0.7,0.1
		c0.7,0.1,1.4,0.1,2,0.2c0.5,0.1,0.9,0.2,1.2,0.2c0.1,0.1,0.1,0.3,0.2,0.6c0.1,0.5,0.1,0.8,0.1,1.1v13.1c-0.2,0.3-0.5,0.6-0.7,0.8
		l0,0c-0.3,0.3-0.6,0.6-1,0.8c-0.4,0.2-0.7,0.4-1.2,0.6c-0.4,0.1-0.9,0.2-1.5,0.2c-1.5,0-2.5-0.4-3-1.1c-0.6-0.9-0.8-2.3-0.8-4.2
		v-14.4h-8.8v1.9l0.7,0.1c0.3,0,0.6,0.1,0.9,0.1c0.3,0,0.5,0,0.8,0.1c0.2,0,0.4,0.1,0.6,0.2c0.1,0,0.1,0.1,0.2,0.3l0,0.1l0,0
		c0,0,0,0.1,0,0.1c0,0.2,0,0.4,0.1,0.7c0,0.2,0,0.4,0,0.6v12c0,2.4,0.5,4.4,1.6,5.7c1.1,1.4,2.8,2.1,5.1,2.1c1,0,1.9-0.2,2.8-0.5
		c0.8-0.3,1.6-0.7,2.3-1.3c0.7-0.5,1.3-1.1,1.8-1.7c0,0,0,0,0-0.1v3.4h1.1l7.4-1.3v-1.4l-0.5-0.2C69.5,164.6,69.1,164.4,68.5,164.1"
		/>
	<path class="st1" d="M86.5,164.9c-0.7,0.4-1.5,0.6-2.3,0.6c-1,0-1.9-0.2-2.6-0.6c-0.7-0.4-1.3-1-1.8-1.7c-0.5-0.7-0.8-1.6-1.1-2.5
		c-0.2-1-0.4-1.9-0.4-2.9v0c0-0.6,0-1.2,0-1.7v-3.6c0-0.7,0-1.2,0-1.6l0,0v0c0,0,0-0.2,0.3-0.5c0.2-0.3,0.5-0.7,0.9-1
		c0.4-0.4,0.9-0.7,1.6-1c0.6-0.3,1.4-0.4,2.2-0.4c1.2,0,2.2,0.2,3,0.7c0.8,0.4,1.6,1,2.1,1.8c0.6,0.8,1,1.6,1.3,2.6
		c0.3,1,0.4,2.1,0.4,3.2c0,1.4-0.2,2.7-0.5,3.8c-0.3,1.2-0.7,2.2-1.3,3C87.8,163.8,87.2,164.4,86.5,164.9 M93.3,147.2
		c-0.8-1.1-1.9-2-3.1-2.7c-1.2-0.7-2.7-1-4.3-1c-1,0-1.9,0.2-2.9,0.5c-0.9,0.3-1.8,0.8-2.6,1.3c-0.8,0.5-1.5,1.2-2.1,1.8
		c0,0-0.1,0.1-0.1,0.1l0.1-15.2H77l-7,3.1v1.2l0.4,0.2c0.5,0.3,1.1,0.6,1.6,0.8c0.3,0.2,0.6,0.3,0.8,0.5v29.6h1.5l1-2.3
		c1,0.7,2.1,1.3,3.4,1.7c1.6,0.5,3.3,0.8,5.2,0.8c1.7,0,3.3-0.3,4.8-0.9c1.4-0.6,2.7-1.5,3.8-2.6c1.1-1.1,1.9-2.4,2.5-3.9
		c0.6-1.5,0.9-3.1,0.9-4.8c0-1.5-0.2-3-0.7-4.5C94.8,149.6,94.1,148.3,93.3,147.2"/>
	<path class="st1" d="M112.1,164.9c-0.7,0.4-1.5,0.6-2.3,0.6c-1,0-1.9-0.2-2.6-0.6c-0.7-0.4-1.3-1-1.8-1.7c-0.5-0.7-0.8-1.6-1.1-2.5
		c-0.2-1-0.4-1.9-0.4-2.9v0c0-0.6,0-1.2,0-1.7v-3.6c0-0.7,0-1.2,0-1.6l0,0v0c0,0,0-0.2,0.3-0.5c0.2-0.3,0.5-0.7,0.9-1
		c0.4-0.4,0.9-0.7,1.6-1c0.6-0.3,1.4-0.4,2.2-0.4c1.2,0,2.2,0.2,3,0.7c0.8,0.4,1.6,1,2.1,1.8c0.6,0.8,1,1.6,1.3,2.6
		c0.3,1,0.4,2.1,0.4,3.2c0,1.4-0.2,2.7-0.5,3.8c-0.3,1.2-0.7,2.2-1.3,3C113.4,163.8,112.8,164.4,112.1,164.9 M120.8,151
		c-0.4-1.4-1.1-2.7-1.9-3.8c-0.9-1.1-1.9-2-3.1-2.7c-1.2-0.7-2.7-1-4.3-1c-1,0-1.9,0.2-2.9,0.5c-0.9,0.3-1.8,0.8-2.6,1.3
		c-0.8,0.5-1.5,1.2-2.1,1.8c0,0-0.1,0.1-0.1,0.1l0.1-15.2h-1.3l-7,3.1v1.2l0.4,0.2c0.5,0.3,1,0.6,1.6,0.8c0.3,0.2,0.6,0.3,0.8,0.5
		v29.6h1.5l1-2.3c1,0.7,2.1,1.3,3.4,1.7c1.6,0.5,3.3,0.8,5.2,0.8c1.7,0,3.3-0.3,4.8-0.9c1.4-0.6,2.7-1.5,3.8-2.6
		c1.1-1.1,1.9-2.4,2.5-3.9c0.6-1.5,0.9-3.1,0.9-4.8C121.5,154,121.3,152.4,120.8,151"/>
	<path class="st1" d="M131.5,165.5c-0.4,0-0.7,0-1-0.1c-0.2,0-0.2-0.1-0.3-0.1c0,0,0-0.1,0-0.2v-32.9h-1.2l-7.4,2.4v1.3l0.5,0.2
		c0.4,0.1,0.8,0.4,1.3,0.7c0.5,0.3,1,0.6,1.3,0.7c0.1,0,0.1,0.1,0.1,0.1c0,0,0,0.1,0,0.3v27c0,0.2,0,0.3-0.3,0.4
		c-0.2,0.1-0.9,0.3-2.7,0.4l-0.7,0v1.9h12.6v-1.9l-0.7-0.1C132.5,165.5,132,165.5,131.5,165.5"/>
	<path class="st1" d="M148.1,149.8c-0.1,0.1-0.2,0.3-0.3,0.4c-0.2,0.1-0.5,0.1-0.7,0.1c-0.4,0-0.8,0-1.3,0c-0.8,0-1.4,0-2,0l-0.5,0
		c-0.4,0-0.9,0-1.3,0c-0.5,0-1.1,0-1.7,0h-1c0.1-0.2,0.1-0.4,0.2-0.6c0.3-0.6,0.6-1.3,1.1-1.9c0.5-0.6,1.1-1.2,1.7-1.7
		c0.6-0.4,1.2-0.6,2-0.6c1.2,0,2.1,0.3,2.7,1c0.7,0.7,1,1.5,1,2.5C148.1,149.6,148.1,149.8,148.1,149.8 M152.9,159.4
		c-0.3,1-1,1.8-2.1,2.6c-1.1,0.7-2.3,1.1-3.8,1.1c-1.3,0-2.5-0.2-3.5-0.7c-1-0.5-1.8-1.1-2.5-2c-0.7-0.8-1.2-1.8-1.5-3
		c-0.4-1.1-0.5-2.3-0.5-3.6c0-0.3,0-0.6,0-0.9c0-0.1,0-0.1,0-0.2h15.4l-0.1-0.8c-0.1-1.4-0.4-2.7-1-3.7c-0.6-1.1-1.3-2-2.2-2.7
		c-0.9-0.7-1.9-1.2-3.1-1.6c-1.2-0.3-2.4-0.5-3.7-0.5c-1.6,0-3.1,0.3-4.5,1c-1.3,0.7-2.5,1.6-3.4,2.7c-0.9,1.1-1.6,2.3-2.2,3.7
		c-0.5,1.4-0.8,2.8-0.8,4.2c0,1.7,0.3,3.3,0.8,4.9c0.5,1.5,1.3,2.9,2.3,4c1,1.2,2.2,2.1,3.7,2.7c1.4,0.6,3,1,4.7,1
		c1.4,0,2.7-0.3,3.8-0.8c1.1-0.5,2.1-1.1,2.9-1.9c0.8-0.8,1.5-1.6,2-2.6c0.5-0.9,0.8-1.8,0.9-2.5l0.1-0.7l-1.7-0.4L152.9,159.4z"/>
	<path class="st1" d="M186.5,146.2c-1.3,1.3-3.4,2-6,2.2l0,0c-0.4,0-1,0-1.7,0h-1.9v-3.8c0-1.2,0-2.5,0-3.8c0-1.3,0-2.5,0.1-3.6
		c0-0.6,0.1-1,0.1-1.4c0-0.4,0-0.6,0-0.8l0,0c0-0.2,0-0.4,0.1-0.5c0,0,0,0,0-0.1c0.2,0,0.4-0.1,0.7-0.1c0.5-0.1,1.1-0.1,1.7-0.1
		c2.1,0,3.9,0.3,5.2,0.9c1.1,0.5,2,1.3,2.7,2.4c0.7,1.1,1.1,2.4,1.1,3.8C188.5,143.3,187.8,144.9,186.5,146.2 M186.5,164.3
		c-0.9,0.5-1.9,0.8-2.9,0.9c-1,0.1-2,0.2-2.9,0.2c-1,0-1.7-0.1-2.2-0.3c-0.5-0.2-0.8-0.4-1-0.6c-0.3-0.4-0.5-0.9-0.5-1.5
		c-0.1-0.7-0.1-1.7-0.2-2.9c0-0.5,0-1.1,0-1.9c0-0.7,0-1.5,0-2.4v-5.1h3.9c0.9,0,1.7,0,2.3,0.1c0.6,0.1,1.3,0.2,1.9,0.4
		c0.8,0.3,1.5,0.6,2.2,1.1c0.6,0.4,1.2,1,1.7,1.6c0.5,0.6,0.9,1.3,1.1,2c0.3,0.7,0.4,1.5,0.4,2.3c0,1.5-0.3,2.7-1,3.7
		C188.7,162.9,187.7,163.7,186.5,164.3 M194.2,151.1c-0.9-0.8-2-1.4-3.2-1.8c-0.3-0.1-0.7-0.2-1-0.4c1.2-0.5,2.3-1.2,3.2-2
		c1.5-1.4,2.3-3.3,2.3-5.5c0-2.1-0.6-3.8-1.7-5.1c-1.1-1.3-2.6-2.3-4.3-2.9c-1.1-0.4-2.2-0.7-3.3-0.8c-1.1-0.1-2.3-0.2-3.5-0.2
		h-16.8v1.9l0.7,0.1c0.8,0.1,1.4,0.2,1.8,0.4c0.4,0.1,0.8,0.4,1.1,0.8l0,0c0,0,0.2,0.2,0.3,0.6c0.1,0.4,0.2,0.8,0.3,1.4
		c0.1,0.5,0.1,1.1,0.2,1.6c0,0.6,0,1.1,0,1.7c0,0.9,0,1.8,0,2.5c0,0.7,0,1.4,0,2.1v7.3c0,1,0,1.9,0,2.7c0,0.6,0,1.2,0,1.8l0,0.7
		c0,0.7,0,1.3,0,1.8c0,0.5,0,1,0,1.5c0,0.5-0.1,1-0.2,1.4c-0.1,0.4-0.2,0.8-0.2,1.2c-0.1,0.3-0.2,0.5-0.2,0.5
		c-0.4,0.4-0.9,0.7-1.5,1c-0.7,0.3-1.4,0.5-2.1,0.6l-0.6,0.1v1.8h17.2c1.4,0,2.9,0,4.4-0.1c1.6-0.1,3-0.4,4.2-0.8
		c0.8-0.3,1.5-0.7,2.3-1.2c0.8-0.5,1.4-1.2,2.1-1.9c0.6-0.7,1.1-1.6,1.5-2.6c0.4-1,0.6-2.1,0.6-3.3c0-1.4-0.3-2.6-0.9-3.7
		C195.9,152.8,195.2,151.9,194.2,151.1"/>
	<path class="st1" d="M205.2,159.1c0.5-0.6,1.2-1.1,2-1.6c0.8-0.5,1.6-1,2.4-1.4c0.4-0.2,0.7-0.4,1.1-0.6v5.9c0,0.3-0.1,0.6-0.3,0.8
		l0,0l0,0c-0.5,0.4-0.9,0.7-1.5,0.9c-0.6,0.2-1.2,0.3-2,0.3c-0.7,0-1.3-0.2-1.7-0.7c-0.5-0.5-0.7-1.1-0.7-1.7
		C204.5,160.2,204.8,159.6,205.2,159.1 M219.3,162.1c-0.1,0.3-0.2,0.6-0.5,0.8c-0.2,0.2-0.6,0.3-1.1,0.3c-0.4,0-0.8-0.2-1.2-0.5
		c-0.2-0.2-0.5-0.7-0.5-2.3c0-1.1,0-2.1,0-2.9c0-0.9,0-1.8,0-2.6c0-0.9,0-1.7,0-2.6c0-1,0-2,0-3.1c0-0.5,0-1.1,0-1.7
		c0-0.7-0.1-1.1-0.3-1.5c-0.4-0.7-1-1.4-1.9-1.9c-0.8-0.5-1.7-0.7-2.7-0.7c-0.5,0-1.1,0.1-1.8,0.3c-0.7,0.2-1.4,0.5-2.2,0.8
		c-0.8,0.3-1.6,0.7-2.5,1.2c-0.9,0.5-1.7,0.9-2.6,1.4l0,0l0,0c-0.2,0.2-0.5,0.3-0.9,0.5c-0.4,0.2-0.7,0.5-1,0.7
		c-0.3,0.3-0.6,0.6-0.9,1c-0.3,0.4-0.4,0.9-0.4,1.4c0,0.7,0.3,1.3,0.8,1.8c0.5,0.5,1.1,0.8,1.8,0.8c0.7,0,1.4-0.2,1.9-0.7
		c0.8-0.6,1-1.3,1-1.8v-2.1c0,0,0-0.1,0.2-0.2c0.2-0.2,0.4-0.4,0.8-0.7c0.3-0.2,0.7-0.4,1.1-0.6c0.4-0.1,0.8-0.2,1.3-0.2
		c0.7,0,1.2,0.1,1.6,0.2c0.4,0.2,0.7,0.4,0.9,0.5c0.3,0.2,0.4,0.4,0.4,0.5c0.1,0.1,0.1,0.2,0.1,0.2v4.3c-0.2,0.1-0.5,0.3-0.8,0.4
		c-0.5,0.2-1,0.5-1.6,0.9c-0.6,0.3-1.3,0.7-2.1,1.2c-0.8,0.5-1.8,1.1-2.8,1.7c-1.1,0.7-2,1.5-2.8,2.3c-0.8,0.9-1.3,2-1.3,3
		c0,0.9,0.2,1.7,0.5,2.4c0.3,0.7,0.7,1.2,1.2,1.6c0.5,0.4,1.1,0.7,1.7,0.9c0.6,0.2,1.2,0.2,1.7,0.2c0.9,0,1.8-0.1,2.6-0.4
		c0.8-0.3,1.5-0.7,2.1-1.2c0.6-0.5,1.2-1,1.6-1.5c0,0,0,0,0,0c0.2,0.9,0.7,1.6,1.4,2.1c1,0.7,2.1,1.1,3.3,1.1c0.8,0,1.5-0.1,2.1-0.4
		c0.7-0.3,1.2-0.7,1.7-1.2c0.5-0.5,0.8-1.1,1.1-1.7c0.3-0.6,0.5-1.3,0.5-2l0-0.8h-1.6L219.3,162.1z"/>
	<path class="st1" d="M236.3,162.4l-1.5-0.7l-0.4,0.5c-0.4,0.5-0.8,0.9-1.3,1.2c-0.5,0.2-1.2,0.4-2,0.4c-0.9,0-1.6-0.3-2.2-0.9
		c-0.6-0.6-0.8-1.6-0.8-3v-11.6h7l2.2-4.3h-9.3v-4.1h-1.4l-7.3,6.9v1.6h3.5c0,1.9,0,4,0,6.3c0,2.7,0,5.5,0,8.4
		c0,0.6,0.2,1.3,0.6,1.9c0.3,0.6,0.8,1.1,1.3,1.5c0.5,0.4,1.2,0.8,1.9,1c0.7,0.2,1.4,0.3,2.1,0.3c1.1,0,2-0.1,2.9-0.4
		c0.8-0.3,1.6-0.6,2.2-1.1c0.6-0.5,1.1-1,1.5-1.6c0.4-0.6,0.6-1.1,0.9-1.6L236.3,162.4z"/>
	<path class="st1" d="M260.2,165.7c-0.3,0-0.6-0.1-0.9-0.1c-0.3,0-0.6-0.1-0.8-0.2c-0.2,0-0.3-0.1-0.4-0.2c0,0,0,0,0,0v-13.8
		c0-1.1-0.1-2.1-0.3-3c-0.2-1-0.5-1.8-1-2.5c-0.5-0.7-1.2-1.3-2-1.8c-0.8-0.4-1.8-0.6-3-0.6c-1.2,0-2.3,0.2-3.2,0.6
		c-1,0.4-1.8,0.8-2.6,1.4c-0.6,0.5-1.2,1-1.7,1.5l0.1-14.9h-1.3l-7,3.1v1.2l0.3,0.2c0.4,0.3,0.9,0.5,1.3,0.7
		c0.4,0.2,0.7,0.4,0.9,0.5l0,0l0,0c0.1,0.1,0.1,0.1,0.2,0.1c0,0,0,0.1,0,0.3v26.7c0,0.2-0.1,0.4-0.4,0.4c-0.5,0.2-1.2,0.3-1.8,0.3
		l-0.7,0.1v1.9h10.9v-1.8l-0.6-0.1c-0.3-0.1-0.7-0.1-1-0.2c-0.3,0-0.5-0.1-0.7-0.1c-0.1,0-0.2-0.1-0.3-0.2c0,0,0,0,0-0.1v-14.4
		c0-0.2,0-0.4,0.1-0.6c0.1-0.3,0.2-0.4,0.2-0.4c0.4-0.6,0.9-1.1,1.6-1.4c0.7-0.4,1.5-0.5,2.6-0.5c0.8,0,1.4,0.1,1.8,0.4
		c0.5,0.2,0.8,0.6,1.1,1c0.3,0.5,0.5,1.1,0.6,1.8c0.1,0.7,0.2,1.6,0.2,2.4v11.7c0,0.1,0,0.2-0.3,0.3c-0.5,0.1-1.2,0.2-2,0.3l-0.7,0
		v1.9h11.2v-1.8L260.2,165.7z"/>
	<path class="st1" d="M64.5,194.4c-0.9-1.1-2.2-2-3.8-2.6c-0.4-0.2-0.8-0.3-1.3-0.4c-0.4-0.1-0.8-0.3-1.2-0.4
		c-0.4-0.1-0.7-0.2-1.2-0.4c-0.4-0.1-0.8-0.3-1.3-0.5l0,0c-1.1-0.4-2-1-2.7-1.7c-0.7-0.7-1-1.5-1-2.6c0-0.7,0.1-1.4,0.4-1.9
		c0.2-0.5,0.6-1,1-1.4c0.4-0.4,0.9-0.7,1.5-0.9c0.6-0.2,1.2-0.3,1.9-0.3c0.8,0,1.6,0.2,2.3,0.5c0.7,0.3,1.3,0.8,1.8,1.3
		c0.5,0.6,1,1.2,1.5,1.9c0.4,0.7,0.8,1.5,1,2.2l0.1,0.2h1v-7.1h-1l-0.1,0.2c-0.2,0.3-0.4,0.5-0.6,0.8c-0.1,0.1-0.1,0.1-0.2,0.2
		c0,0-0.1-0.1-0.2-0.1c-0.3-0.2-0.6-0.4-1.1-0.6c-0.5-0.2-1.1-0.4-1.9-0.6C59,180.1,58,180,57,180c-1.1,0-2.2,0.1-3.2,0.4
		c-1,0.3-2,0.8-2.8,1.4c-0.8,0.6-1.4,1.4-1.9,2.4c-0.5,0.9-0.7,2.1-0.7,3.4c0,0.8,0.1,1.5,0.4,2.2c0.3,0.7,0.6,1.3,1,1.9
		c0.4,0.6,0.9,1.1,1.5,1.5c0.6,0.4,1.2,0.8,1.8,1c0.5,0.2,1,0.4,1.4,0.5c0.4,0.1,0.7,0.2,1.1,0.4c0.4,0.1,0.8,0.3,1.2,0.4
		c0.4,0.1,0.9,0.3,1.4,0.5c0.5,0.2,1,0.4,1.5,0.7c0.4,0.2,0.8,0.5,1.2,0.8c0.3,0.3,0.6,0.7,0.8,1.1c0.2,0.4,0.3,0.9,0.3,1.5
		c0,1.5-0.5,2.6-1.4,3.5c-1,0.9-2.3,1.3-3.9,1.3c-0.6,0-1.1-0.1-1.7-0.3c-0.6-0.2-1.1-0.4-1.5-0.6c-0.4-0.2-0.7-0.5-1.1-0.8
		c-0.4-0.4-0.8-0.8-1.1-1.3c-0.4-0.5-0.7-1-1-1.6c-0.3-0.6-0.6-1.1-0.8-1.7l-0.1-0.3h-1l0.1,7.6h0.9l0.1-0.2
		c0.2-0.2,0.4-0.5,0.6-0.8c0.1-0.1,0.2-0.2,0.2-0.2c0.1,0,0.1,0.1,0.2,0.1c0.3,0.2,0.7,0.4,1.2,0.6c0.5,0.2,1.2,0.4,2.1,0.5
		c0.8,0.1,1.8,0.2,2.9,0.2c1.3,0,2.6-0.2,3.7-0.5c1.1-0.3,2.1-0.8,3-1.4c0.8-0.6,1.5-1.4,1.9-2.4c0.5-0.9,0.7-2,0.7-3.1
		C65.9,197,65.4,195.5,64.5,194.4"/>
	<path class="st1" d="M79.9,200.1c-0.3,0.8-0.6,1.6-1.1,2.2c-0.4,0.6-1,1.1-1.5,1.4c-0.6,0.3-1.1,0.5-1.7,0.5
		c-0.7,0-1.2-0.1-1.7-0.3c-0.4-0.2-0.7-0.5-1-0.9c-0.2-0.4-0.4-0.8-0.5-1.3c-0.1-0.5-0.2-1-0.2-1.4c0-0.5,0-1,0-1.5v-2.2
		c0-0.4,0-0.8,0-1.3c0-0.5,0-1,0-1.5c0,0,0-0.1,0.2-0.5c0.2-0.3,0.4-0.5,0.7-0.8c0.3-0.3,0.7-0.5,1.1-0.7c0.4-0.2,0.9-0.3,1.4-0.3
		c0.8,0,1.5,0.2,2.1,0.5c0.6,0.3,1.1,0.7,1.5,1.2c0.4,0.5,0.7,1.1,0.9,1.8c0.2,0.7,0.3,1.5,0.3,2.3
		C80.3,198.3,80.2,199.3,79.9,200.1 M82.6,191c-0.5-0.8-1.2-1.4-2.1-1.8c-0.8-0.5-1.8-0.7-3-0.7c-0.7,0-1.4,0.1-2,0.4
		c-0.6,0.3-1.1,0.6-1.6,1c-0.5,0.4-0.9,0.8-1.4,1.3c-0.1,0.2-0.3,0.3-0.4,0.5v-3.2h-0.7l-5.4,2.1v0.7l0.2,0.1
		c0.3,0.1,0.6,0.3,1.1,0.5c0.4,0.2,0.8,0.4,1,0.5c0.1,0.1,0.1,0.1,0.1,0.1c0,0,0,0.1,0,0.3v19c0,0,0,0.1-0.1,0.2
		c-0.2,0.1-0.4,0.2-0.6,0.3c-0.3,0.1-0.6,0.2-0.9,0.2c-0.3,0.1-0.6,0.1-0.8,0.1l-0.3,0v1.1H75v-1.1l-0.3,0c-0.2,0-0.5,0-0.8-0.1
		c-0.3,0-0.6-0.1-0.8-0.1c-0.3,0-0.5-0.1-0.6-0.2c-0.1-0.1-0.1-0.1-0.2-0.2v-1.6c0-0.6,0-1.3,0-2l0-0.3c0-0.6,0-1.1,0-1.6
		c0-0.4,0-0.7,0-0.9c0.3,0,0.6,0.1,0.8,0.1c0.4,0,0.8,0,1.2,0c1.5,0,2.9-0.2,4.1-0.7c1.2-0.5,2.3-1.1,3.1-1.9c0.9-0.8,1.5-1.8,2-3
		c0.5-1.1,0.7-2.4,0.7-3.7c0-0.9-0.1-1.9-0.4-2.8C83.5,192.6,83.1,191.8,82.6,191"/>
	<path class="st1" d="M93.7,201.4c0,0.3-0.1,0.5-0.3,0.7l0,0l0,0c-0.3,0.3-0.7,0.6-1.1,0.7c-0.4,0.1-0.9,0.2-1.5,0.2
		c-0.6,0-1-0.2-1.3-0.6c-0.4-0.4-0.5-0.9-0.5-1.4c0-0.5,0.2-0.9,0.5-1.3c0.4-0.4,0.9-0.9,1.4-1.2c0.6-0.4,1.2-0.7,1.8-1.1
		c0.4-0.2,0.7-0.4,1-0.6V201.4z M99.8,202c-0.1,0.3-0.2,0.5-0.4,0.7c-0.2,0.2-0.5,0.2-0.9,0.2c-0.4,0-0.7-0.1-1-0.4
		c-0.2-0.2-0.4-0.6-0.4-1.8c0-0.8,0-1.5,0-2.1c0-0.6,0-1.3,0-1.9c0-0.6,0-1.3,0-1.9c0-0.7,0-1.4,0-2.2c0-0.4,0-0.8,0-1.2
		c0-0.5-0.1-0.8-0.2-1c-0.3-0.5-0.7-1-1.3-1.3c-0.6-0.3-1.2-0.5-1.9-0.5c-0.3,0-0.7,0.1-1.3,0.2c-0.5,0.1-1,0.3-1.6,0.6
		c-0.6,0.2-1.2,0.5-1.8,0.8c-0.6,0.3-1.2,0.7-1.8,1l0,0c-0.2,0.1-0.4,0.2-0.6,0.4c-0.3,0.1-0.5,0.3-0.7,0.5
		c-0.2,0.2-0.4,0.4-0.6,0.7c-0.2,0.3-0.3,0.6-0.3,0.9c0,0.4,0.2,0.8,0.5,1.2c0.3,0.3,0.7,0.5,1.2,0.5c0.5,0,0.9-0.2,1.3-0.5
		c0.4-0.3,0.6-0.7,0.6-1.2v-1.5c0,0,0-0.1,0.2-0.3c0.1-0.2,0.3-0.3,0.6-0.5c0.2-0.2,0.5-0.3,0.9-0.4c0.3-0.1,0.6-0.2,1-0.2
		c0.5,0,0.9,0.1,1.2,0.2c0.3,0.1,0.5,0.3,0.7,0.4c0.2,0.1,0.3,0.3,0.3,0.4c0.1,0.1,0.1,0.2,0.1,0.2v3.3c-0.2,0.1-0.4,0.2-0.6,0.3
		c-0.3,0.2-0.7,0.4-1.2,0.6c-0.4,0.2-1,0.5-1.5,0.9c-0.6,0.4-1.3,0.8-2,1.2c-0.8,0.5-1.4,1.1-2,1.7c-0.6,0.7-0.9,1.4-0.9,2.1
		c0,0.7,0.1,1.2,0.3,1.7c0.2,0.5,0.5,0.8,0.9,1.1c0.3,0.3,0.7,0.5,1.2,0.6c0.4,0.1,0.8,0.2,1.2,0.2c0.7,0,1.3-0.1,1.8-0.3
		c0.5-0.2,1-0.5,1.5-0.8c0.4-0.3,0.8-0.7,1.2-1.1c0.1-0.1,0.1-0.2,0.2-0.3c0.1,0.8,0.5,1.4,1,1.8c0.7,0.5,1.4,0.8,2.3,0.8
		c0.5,0,1-0.1,1.5-0.3c0.4-0.2,0.8-0.5,1.2-0.8c0.3-0.4,0.6-0.8,0.8-1.2c0.2-0.5,0.3-0.9,0.3-1.4l0-0.4h-0.9L99.8,202z"/>
	<path class="st1" d="M121.8,202.4c-0.3,0.2-0.7,0.5-1,0.6c-0.3,0.2-0.7,0.3-1.1,0.4c-0.4,0.1-0.9,0.1-1.4,0.1c-0.5,0-1-0.1-1.4-0.3
		c-0.4-0.2-0.8-0.5-1.1-0.8s-0.6-0.7-0.7-1.2c-0.2-0.5-0.3-0.9-0.3-1.4c0-0.5,0.1-1,0.2-1.5c0.2-0.5,0.4-0.9,0.6-1.3
		c0.3-0.4,0.5-0.8,0.9-1.1c0.2-0.2,0.5-0.5,0.7-0.7c0,0,0.1,0.1,0.1,0.1c0.1,0.1,0.2,0.2,0.3,0.3c0.3,0.2,0.5,0.5,0.8,0.8
		c0.3,0.3,0.6,0.5,0.8,0.8c0.3,0.3,0.5,0.5,0.7,0.7c0.4,0.4,0.7,0.8,0.9,1.1c0.3,0.3,0.5,0.6,0.7,0.9c0.2,0.3,0.5,0.6,0.7,0.9
		c0.2,0.2,0.3,0.5,0.5,0.8C122.3,202,122,202.2,121.8,202.4 M116.7,187.7c0.1-0.2,0.2-0.4,0.3-0.6c0.1-0.2,0.3-0.3,0.5-0.4
		c0.2-0.1,0.4-0.2,0.7-0.2c0.3,0,0.6,0.1,0.8,0.2c0.3,0.2,0.5,0.4,0.7,0.7c0.2,0.3,0.3,0.6,0.5,1c0.1,0.4,0.2,0.8,0.2,1.1
		c0,0.7-0.1,1.3-0.3,1.8c-0.2,0.4-0.4,0.8-0.7,1.2c-0.4-0.3-0.7-0.6-1-0.9c-0.3-0.3-0.7-0.7-0.9-1.1c-0.3-0.4-0.4-0.7-0.5-1
		c-0.1-0.3-0.1-0.7-0.1-1.3C116.6,188.1,116.7,187.9,116.7,187.7 M133.5,201.8c-0.1,0.2-0.3,0.4-0.5,0.7c-0.2,0.2-0.4,0.5-0.7,0.7
		c-0.3,0.2-0.5,0.4-0.8,0.5c-0.3,0.1-0.6,0.2-0.9,0.2c-0.6,0-1.2-0.1-1.6-0.4c-0.5-0.3-0.9-0.7-1.4-1.2c-0.5-0.5-0.9-1-1.2-1.4
		c-0.2-0.3-0.5-0.6-0.7-0.9l0.4-0.4l0,0c0,0,1.3-1.6,2-2.3c0.7-0.7,1.4-1.3,2.1-1.7c0.7-0.5,1.5-0.7,2.4-0.9l0.3,0v-1l-10.4,0.2v1.1
		l0.4,0c0.4,0,0.9,0,1.3,0.1c0.4,0,0.7,0.1,1.1,0.2c0.3,0.1,0.5,0.2,0.7,0.4c0.1,0.1,0.2,0.4,0.2,0.7c0,0.1,0,0.4-0.2,0.8
		c-0.2,0.4-0.4,0.8-0.7,1.3c-0.1,0.2-0.2,0.3-0.2,0.4c0,0.1-0.1,0.2-0.1,0.3c-0.2-0.4-0.5-0.8-0.8-1.2c-0.4-0.6-0.9-1.2-1.4-1.8
		c-0.5-0.5-0.9-1-1.4-1.5c-0.4-0.4-0.8-0.7-1.2-1.1c0.1-0.1,0.2-0.2,0.4-0.2c0.4-0.3,0.7-0.6,1.1-0.9c0.4-0.4,0.7-0.8,1-1.3
		c0.3-0.5,0.4-1.1,0.4-1.8c0-0.6-0.1-1.2-0.4-1.7c-0.3-0.5-0.6-0.9-1-1.2c-0.4-0.3-0.9-0.5-1.4-0.7c-0.5-0.2-1-0.2-1.6-0.2
		c-0.6,0-1.2,0.1-1.8,0.3c-0.6,0.2-1.1,0.5-1.6,0.9c-0.5,0.4-0.9,0.9-1.2,1.4c-0.3,0.6-0.5,1.2-0.5,1.8c0,0.6,0.1,1.2,0.3,1.7
		c0.2,0.5,0.4,0.9,0.7,1.3c0.3,0.4,0.6,0.8,1,1.1c0.2,0.2,0.5,0.5,0.8,0.8c-0.5,0.3-1,0.6-1.5,0.9c-0.7,0.4-1.3,0.9-1.8,1.5
		c-0.6,0.6-1,1.2-1.3,1.9c-0.3,0.7-0.5,1.5-0.5,2.3c0,0.7,0.1,1.4,0.4,2c0.3,0.6,0.7,1.2,1.1,1.7c0.5,0.5,1.1,0.9,1.8,1.1
		c0.7,0.3,1.5,0.4,2.4,0.4c0.8,0,1.6-0.1,2.3-0.4c0.7-0.3,1.4-0.6,1.9-1c0.6-0.4,1.1-0.8,1.5-1.3c0.3-0.3,0.5-0.5,0.7-0.8
		c0.2,0.4,0.5,0.7,0.8,1c0.4,0.5,0.8,0.9,1.3,1.3c0.5,0.4,1,0.7,1.5,0.9c0.6,0.2,1.2,0.3,1.8,0.3c0.7,0,1.4-0.1,2-0.4
		c0.6-0.3,1.2-0.6,1.7-1c0.5-0.4,0.9-0.9,1.3-1.4c0.4-0.5,0.6-0.9,0.8-1.3l0.1-0.3l-0.9-0.4L133.5,201.8z"/>
	<path class="st1" d="M172.8,181.4v-1h-9.2v1l0.3,0c1,0.2,1.8,0.4,2.4,0.8c0.5,0.4,0.9,0.8,1.1,1.4l0,0c0.2,0.4,0.3,1.1,0.3,1.8
		c0,0.8,0,1.7,0,2.6v10.6L152,180.4h-7.5v1.1l0.3,0c0.4,0,0.7,0.1,1.1,0.2c0.4,0.1,0.7,0.2,1,0.5c0.3,0.2,0.6,0.5,0.8,0.9
		c0.2,0.4,0.4,0.9,0.4,1.5c0,0.7,0,1.2,0,1.7v4.2c0,1.5,0,2.9,0,4.3c0,1.3-0.1,2.5-0.1,3.5c0,1.3-0.1,2.4-0.2,3.3
		c-0.1,0.9-0.3,1.5-0.6,2l0,0c-0.3,0.4-0.6,0.7-1.1,0.9c-0.5,0.2-1,0.3-1.6,0.4l-0.3,0v1.1h9.2v-1.1l-0.3,0
		c-0.9-0.1-1.6-0.3-2.1-0.5c-0.5-0.2-0.8-0.6-1-1l0,0c-0.2-0.4-0.3-1.1-0.4-1.9c-0.1-0.9-0.1-2-0.1-3.1v-13.5
		c1.3,1.5,2.6,2.9,3.8,4.3c1.5,1.7,2.9,3.4,4.3,5c1.4,1.7,3,3.5,4.6,5.4c1.7,2,3.5,4.1,5.3,6.2l0,0l0,0c0.3,0.3,0.6,0.5,0.9,0.5
		c0.3,0,0.4-0.1,0.5-0.2c0.1-0.1,0.2-0.3,0.2-0.5V203c0-0.8,0-1.6,0-2.5c0-0.8,0-1.7,0-2.4v-2.2c0-1.6,0-3,0-4.3
		c0-1.4,0.1-2.5,0.1-3.5c0-1.1,0.1-2.1,0.1-3c0.1-1.1,0.2-1.6,0.3-1.8l0,0l0,0c0.2-0.6,0.6-1,1-1.3c0.5-0.3,1.1-0.5,1.9-0.6
		L172.8,181.4z"/>
	<path class="st1" d="M179.9,201.4c0,0.3-0.1,0.5-0.3,0.7l0,0c-0.3,0.3-0.7,0.6-1.1,0.7c-0.4,0.1-0.9,0.2-1.5,0.2
		c-0.6,0-1-0.2-1.3-0.6c-0.4-0.4-0.5-0.9-0.5-1.4c0-0.5,0.2-0.9,0.5-1.3c0.4-0.4,0.9-0.9,1.4-1.2c0.6-0.4,1.2-0.7,1.8-1.1
		c0.4-0.2,0.7-0.4,1-0.6V201.4z M187.1,201.7h-0.9l-0.1,0.3c-0.1,0.3-0.2,0.5-0.4,0.7c-0.2,0.2-0.5,0.2-0.9,0.2
		c-0.4,0-0.7-0.1-1-0.4c-0.2-0.2-0.4-0.6-0.4-1.8c0-0.8,0-1.5,0-2.1c0-0.6,0-1.3,0-1.9c0-0.6,0-1.3,0-1.9c0-0.7,0-1.4,0-2.2
		c0-0.4,0-0.8,0-1.2c0-0.5-0.1-0.8-0.2-1c-0.3-0.5-0.7-1-1.3-1.3c-0.6-0.3-1.2-0.5-1.9-0.5c-0.3,0-0.7,0.1-1.3,0.2
		c-0.5,0.1-1,0.3-1.6,0.6c-0.6,0.2-1.2,0.5-1.8,0.8c-0.6,0.3-1.3,0.7-1.8,1l0,0c-0.2,0.1-0.4,0.2-0.6,0.4c-0.3,0.1-0.5,0.3-0.7,0.5
		c-0.2,0.2-0.4,0.4-0.6,0.7c-0.2,0.3-0.3,0.6-0.3,0.9c0,0.4,0.2,0.8,0.5,1.2c0.3,0.3,0.7,0.5,1.2,0.5c0.5,0,0.9-0.2,1.3-0.5
		c0.4-0.3,0.6-0.7,0.6-1.2v-1.5c0,0,0-0.1,0.2-0.3c0.1-0.2,0.3-0.3,0.6-0.5c0.2-0.2,0.5-0.3,0.9-0.4c0.3-0.1,0.6-0.2,1-0.2
		c0.5,0,0.9,0.1,1.2,0.2c0.3,0.1,0.5,0.3,0.7,0.4c0.2,0.1,0.3,0.3,0.3,0.4c0.1,0.1,0.1,0.2,0.1,0.2v3.3c-0.2,0.1-0.4,0.2-0.6,0.3
		c-0.3,0.2-0.7,0.4-1.2,0.6c-0.4,0.2-0.9,0.5-1.5,0.9c-0.6,0.3-1.3,0.8-2,1.2c-0.8,0.5-1.5,1.1-2,1.7c-0.6,0.7-0.9,1.4-0.9,2.1
		c0,0.7,0.1,1.2,0.3,1.7c0.2,0.5,0.5,0.8,0.9,1.1c0.3,0.3,0.7,0.5,1.2,0.6c0.4,0.1,0.8,0.2,1.2,0.2c0.7,0,1.3-0.1,1.8-0.3
		c0.5-0.2,1-0.5,1.5-0.8c0.4-0.3,0.8-0.7,1.2-1.1c0.1-0.1,0.1-0.2,0.2-0.3c0.1,0.8,0.5,1.4,1,1.8c0.7,0.5,1.4,0.8,2.3,0.8
		c0.5,0,1-0.1,1.5-0.3c0.4-0.2,0.8-0.5,1.2-0.8c0.3-0.4,0.6-0.8,0.8-1.2c0.2-0.5,0.3-0.9,0.3-1.4L187.1,201.7z"/>
	<path class="st1" d="M194.3,204.6c-0.2,0-0.4,0-0.6-0.1c-0.2,0-0.3-0.1-0.4-0.2c0,0-0.1-0.1-0.1-0.2v-15.6h-0.6l-4.9,1.6v0.7
		l0.2,0.1c0.3,0.1,0.6,0.2,0.9,0.4c0.3,0.1,0.5,0.3,0.7,0.4c0.1,0.1,0.1,0.1,0.1,0.2c0,0.1,0,0.2,0,0.4V204c0,0.1,0,0.2-0.1,0.2
		c-0.1,0.1-0.3,0.2-0.4,0.3c-0.2,0.1-0.4,0.1-0.7,0.1c-0.3,0-0.5,0.1-0.8,0.1l-0.3,0v1.1h8.1v-1l-0.3-0.1
		C194.8,204.7,194.5,204.6,194.3,204.6"/>
	<path class="st1" d="M191.2,185.7c0.6,0,1.2-0.2,1.6-0.6c0.4-0.4,0.6-1,0.6-1.6c0-0.6-0.2-1.2-0.6-1.6c-0.4-0.4-1-0.6-1.6-0.6
		s-1.2,0.2-1.6,0.6c-0.4,0.4-0.6,0.9-0.6,1.6c0,0.6,0.2,1.1,0.7,1.6C190.1,185.5,190.6,185.7,191.2,185.7"/>
	<path class="st1" d="M204.1,204.6c-0.3,0-0.5,0-0.7-0.1c-0.1,0-0.2-0.1-0.3-0.1c0,0-0.1-0.1-0.1-0.3v-23.8h-0.7l-5.2,1.7v0.7
		l0.2,0.1c0.3,0.1,0.6,0.3,1,0.5c0.4,0.2,0.7,0.4,0.9,0.5c0.1,0.1,0.1,0.1,0.1,0.1c0,0,0,0.1,0,0.3V204c0,0.2-0.1,0.3-0.3,0.4
		c-0.2,0.1-0.7,0.2-2,0.3l-0.4,0v1.1h8.7v-1.1l-0.3,0C204.8,204.7,204.4,204.6,204.1,204.6"/>
	<path class="st1" d="M217.8,197.3c-0.8-0.8-1.7-1.4-2.8-1.7c-0.4-0.1-1-0.2-1.6-0.4c-0.6-0.1-1.2-0.2-1.6-0.4
		c-0.7-0.2-1.2-0.4-1.7-0.8c-0.4-0.3-0.6-0.8-0.6-1.5c0-0.5,0.1-0.9,0.2-1.2c0.2-0.4,0.4-0.6,0.6-0.9c0.3-0.2,0.5-0.4,0.9-0.5
		c0.3-0.1,0.7-0.2,1-0.2c0.6,0,1.1,0.1,1.5,0.3c0.4,0.2,0.8,0.5,1.2,0.9c0.4,0.4,0.7,0.9,1,1.4c0.3,0.6,0.6,1.2,0.9,1.9l0.1,0.3
		l0.9-0.2l-0.5-4.8l-0.2-0.1c-0.7-0.3-1.4-0.5-2.1-0.6c-0.8-0.2-1.6-0.3-2.6-0.3c-0.8,0-1.5,0.1-2.2,0.3c-0.7,0.2-1.3,0.6-1.9,1
		c-0.5,0.4-1,1-1.3,1.6c-0.3,0.6-0.5,1.3-0.5,2.1c0,1.1,0.3,2.1,0.9,2.9c0.6,0.8,1.3,1.4,2.3,1.7c0.5,0.2,1,0.3,1.6,0.5
		c0.6,0.1,1.2,0.3,1.8,0.4c0.7,0.1,1.2,0.4,1.6,0.8c0.4,0.4,0.6,0.9,0.6,1.5c0,1.2-0.3,2.1-0.9,2.6c-0.6,0.6-1.4,0.8-2.3,0.8
		c-0.7,0-1.3-0.1-1.7-0.4c-0.5-0.3-0.9-0.7-1.3-1.2c-0.4-0.5-0.7-1-0.9-1.6c-0.3-0.6-0.5-1.2-0.7-1.7l-0.1-0.3h-0.9v5.1l0.2,0.1
		c0.8,0.4,1.6,0.6,2.5,0.8c0.9,0.2,1.9,0.3,2.9,0.3c0.9,0,1.7-0.1,2.5-0.3c0.8-0.2,1.5-0.5,2.2-0.9c0.6-0.4,1.2-1,1.5-1.7
		c0.4-0.7,0.6-1.5,0.6-2.5C219,199.2,218.6,198.1,217.8,197.3"/>
</g>
</svg>
