<?xml version="1.0" encoding="utf-8"?>
<!-- Generator: Adobe Illustrator 25.3.1, SVG Export Plug-In . SVG Version: 6.00 Build 0)  -->
<svg version="1.1" id="Layer_1" xmlns="http://www.w3.org/2000/svg" xmlns:xlink="http://www.w3.org/1999/xlink" x="0px" y="0px"
	 viewBox="0 0 526 200" style="enable-background:new 0 0 526 200;" xml:space="preserve">
<style type="text/css">
	.st0{clip-path:url(#SVGID_2_);fill:#231F20;}
</style>
<g>
	<g>
		<defs>
			<rect id="SVGID_1_" x="-43" y="-155" width="612" height="792"/>
		</defs>
		<clipPath id="SVGID_2_">
			<use xlink:href="#SVGID_1_"  style="overflow:visible;"/>
		</clipPath>
		<path class="st0" d="M51.5,49.5c-2.8,2.7-6.9,4.2-12.4,4.5l0,0c-0.9,0.1-2.1,0.1-3.5,0.1h-4v-7.8c0-2.4,0-5,0-7.7
			c0-2.7,0.1-5.2,0.2-7.4c0.1-1.1,0.1-2,0.1-2.8c0-0.7,0.1-1.3,0.1-1.8v0c0-0.4,0.1-0.7,0.1-1c0,0,0-0.1,0-0.1
			c0.4-0.1,0.9-0.1,1.4-0.2c1.1-0.1,2.3-0.2,3.6-0.2c4.3,0,7.9,0.6,10.7,1.8c2.2,1,4.1,2.6,5.6,4.9c1.5,2.3,2.2,4.8,2.2,7.8
			C55.6,43.5,54.3,46.8,51.5,49.5 M51.6,86.8c-1.9,1-3.9,1.6-6,1.9c-2.2,0.3-4.2,0.4-6,0.4c-2,0-3.5-0.2-4.5-0.6
			c-0.9-0.4-1.6-0.8-2-1.3c-0.6-0.8-1-1.9-1.1-3.1c-0.2-1.5-0.3-3.5-0.3-5.9c0-1.1,0-2.4-0.1-3.9c0-1.5,0-3.2,0-5V58.6h8
			c1.8,0,3.4,0.1,4.8,0.2c1.3,0.2,2.6,0.4,4,0.9c1.6,0.5,3.1,1.3,4.5,2.2c1.3,0.9,2.5,2,3.5,3.3c1,1.3,1.8,2.7,2.3,4.2
			c0.6,1.5,0.8,3.1,0.8,4.7c0,3-0.7,5.6-2,7.7C56,83.8,54.1,85.5,51.6,86.8 M67.4,59.6c-1.9-1.6-4.1-2.9-6.6-3.8
			c-0.7-0.3-1.4-0.5-2.1-0.7c2.5-1,4.7-2.4,6.5-4.1c3.1-2.9,4.6-6.7,4.6-11.4c0-4.2-1.2-7.8-3.6-10.6c-2.3-2.7-5.3-4.7-8.9-6.1
			c-2.2-0.8-4.5-1.4-6.9-1.7c-2.3-0.3-4.8-0.4-7.3-0.4H9H8.7v3.8l1.3,0.1c1.6,0.2,2.9,0.4,3.8,0.7c0.8,0.3,1.5,0.8,2.4,1.7l0,0
			c0.1,0.1,0.3,0.4,0.5,1.2c0.2,0.8,0.4,1.7,0.6,2.8c0.2,1.1,0.3,2.2,0.3,3.3c0.1,1.2,0.1,2.3,0.1,3.5c0,2,0,3.7,0,5.2
			c0,1.5,0,3,0,4.3v15c0,1.9,0,3.8,0,5.6c0,2.2-0.1,3.7-0.1,5.1c0,1.5,0,2.7,0,3.7c0,1,0,2-0.1,3.1c-0.1,1-0.2,2-0.3,2.9
			c-0.2,1-0.3,1.7-0.5,2.4c-0.2,0.7-0.4,1-0.5,1.1c-0.8,0.9-1.7,1.5-3,2c-1.4,0.5-2.8,0.9-4.3,1.2l-1.3,0.2v3.8H43
			c2.9,0,6-0.1,9-0.3c3.2-0.2,6.2-0.8,8.8-1.7c1.6-0.6,3.1-1.4,4.7-2.5c1.5-1.1,3-2.4,4.2-3.9c1.3-1.5,2.3-3.3,3.1-5.4
			c0.8-2,1.2-4.3,1.2-6.8c0-2.8-0.6-5.4-1.8-7.6C71,63.1,69.4,61.2,67.4,59.6"/>
		<path class="st0" d="M123.6,86.4c-1.1-0.5-1.9-0.9-2.4-1.2c-0.1-0.1-0.2-0.2-0.2-0.2c0-0.1,0-0.3,0-0.6V44.7h-19.5v4l1.4,0.1
			c1.4,0.1,2.8,0.3,4.1,0.5c1,0.1,1.8,0.3,2.4,0.5c0.1,0.3,0.2,0.6,0.3,1.2c0.1,0.9,0.2,1.7,0.2,2.3v27.1c-0.5,0.6-1,1.2-1.5,1.7
			l0,0c-0.6,0.6-1.3,1.2-2,1.7c-0.7,0.5-1.5,0.9-2.4,1.2c-0.9,0.3-1.9,0.5-3.1,0.5c-3.1,0-5.1-0.8-6.1-2.4c-1.1-1.8-1.7-4.7-1.7-8.6
			V44.7H74.7v3.9l1.3,0.1c0.6,0.1,1.2,0.1,1.9,0.2c0.6,0,1.1,0.1,1.6,0.2c0.5,0.1,0.9,0.2,1.2,0.4c0.1,0.1,0.3,0.2,0.5,0.5l0.1,0.1
			l0,0c0,0,0,0.1,0,0.3c0,0.4,0.1,0.9,0.2,1.4c0.1,0.4,0.1,0.8,0.1,1.2v24.7c0,5,1.1,9,3.3,11.7c2.3,2.8,5.8,4.2,10.4,4.2
			c2,0,3.9-0.3,5.7-1c1.7-0.6,3.3-1.5,4.8-2.6c1.4-1.1,2.6-2.3,3.8-3.6c0,0,0.1-0.1,0.1-0.1v7h2.3l15.3-2.8V88l-0.9-0.4
			C125.7,87.3,124.8,86.9,123.6,86.4"/>
		<path class="st0" d="M160.6,87.9c-1.4,0.9-3,1.3-4.8,1.3c-2.1,0-3.9-0.4-5.4-1.3c-1.5-0.9-2.7-2-3.7-3.5c-1-1.5-1.7-3.2-2.2-5.2
			c-0.5-2-0.8-4-0.8-6v0c-0.1-1.2-0.1-2.4-0.1-3.6v-7.4c0-1.4,0-2.5,0.1-3.3l0-0.1v0c0-0.1,0.1-0.4,0.5-1.1c0.4-0.7,1-1.4,1.9-2.2
			c0.8-0.7,1.9-1.4,3.2-2c1.3-0.6,2.8-0.8,4.6-0.8c2.4,0,4.5,0.5,6.2,1.4c1.7,0.9,3.2,2.2,4.3,3.7c1.2,1.6,2,3.4,2.6,5.4
			c0.6,2.1,0.9,4.3,0.9,6.6c0,2.8-0.3,5.5-0.9,7.9c-0.6,2.4-1.5,4.5-2.6,6.2C163.3,85.7,162.1,87,160.6,87.9 M174.7,51.4
			c-1.7-2.3-3.9-4.2-6.4-5.6c-2.6-1.4-5.5-2.1-8.8-2.1c-2,0-4,0.4-6,1.1c-2,0.7-3.8,1.6-5.4,2.7c-1.6,1.1-3.1,2.4-4.3,3.8
			c-0.1,0.1-0.1,0.1-0.2,0.2l0.3-31.3h-2.6l-14.4,6.4v2.5l0.8,0.4c1.1,0.6,2.2,1.2,3.2,1.7c0.7,0.4,1.2,0.7,1.7,1v61h3.2l2.1-4.7
			c2,1.4,4.4,2.6,7.1,3.5c3.2,1,6.8,1.6,10.7,1.6c3.5,0,6.8-0.6,9.8-1.9c3-1.3,5.6-3.1,7.8-5.3c2.2-2.3,3.9-5,5.1-8
			c1.2-3,1.8-6.3,1.8-9.8c0-3.2-0.4-6.3-1.3-9.2C177.8,56.4,176.4,53.7,174.7,51.4"/>
		<path class="st0" d="M213.4,87.9c-1.4,0.9-3,1.3-4.8,1.3c-2.1,0-3.9-0.4-5.4-1.3c-1.5-0.9-2.7-2-3.7-3.5c-1-1.5-1.7-3.2-2.2-5.2
			c-0.5-2-0.8-4-0.8-6v0c-0.1-1.2-0.1-2.4-0.1-3.6v-7.4c0-1.4,0-2.5,0.1-3.3l0-0.1v0c0-0.1,0.1-0.4,0.5-1.1c0.4-0.7,1-1.4,1.8-2.1
			c0.8-0.7,1.9-1.4,3.2-2c1.3-0.6,2.8-0.8,4.6-0.8c2.4,0,4.5,0.5,6.2,1.4c1.7,0.9,3.2,2.2,4.3,3.7c1.2,1.6,2,3.4,2.6,5.4
			c0.6,2.1,0.9,4.3,0.9,6.6c0,2.8-0.3,5.5-0.9,7.9c-0.6,2.4-1.5,4.5-2.6,6.2C216.1,85.7,214.8,87,213.4,87.9 M231.4,59.4
			c-0.9-3-2.2-5.6-4-7.9c-1.8-2.3-3.9-4.2-6.5-5.6c-2.6-1.4-5.5-2.1-8.8-2.1c-2,0-4,0.4-6,1.1c-2,0.7-3.8,1.6-5.4,2.7
			c-1.6,1.1-3.1,2.4-4.3,3.8c-0.1,0.1-0.1,0.1-0.2,0.2l0.3-31.3H194l-14.4,6.4v2.5l0.8,0.4c1.1,0.6,2.1,1.1,3.2,1.7
			c0.7,0.4,1.2,0.7,1.7,1v61h3.2l2.1-4.7c2,1.4,4.4,2.6,7.1,3.5c3.2,1,6.8,1.6,10.7,1.6c3.5,0,6.8-0.6,9.8-1.9
			c3-1.3,5.6-3.1,7.8-5.3c2.2-2.3,3.9-5,5.1-8c1.2-3,1.8-6.3,1.8-9.8C232.8,65.4,232.3,62.3,231.4,59.4"/>
		<path class="st0" d="M253.5,89.2c-0.8,0-1.5-0.1-2-0.2c-0.3-0.1-0.5-0.2-0.5-0.2c0,0-0.1-0.2-0.1-0.4V20.5h-2.4l-15.3,5v2.7
			l0.9,0.4c0.7,0.3,1.7,0.8,2.8,1.4c1.1,0.6,2,1.1,2.6,1.5c0.1,0.1,0.2,0.2,0.2,0.2c0,0.1,0,0.3,0,0.6v55.7c0,0.4-0.1,0.6-0.6,0.8
			c-0.5,0.2-1.8,0.6-5.5,0.8l-1.4,0.1v4h25.9v-3.9l-1.4-0.1C255.6,89.3,254.4,89.2,253.5,89.2"/>
		<path class="st0" d="M287.6,56.9c-0.1,0.3-0.3,0.5-0.6,0.8c-0.4,0.1-0.9,0.2-1.5,0.3c-0.8,0.1-1.7,0.1-2.6,0.1
			c-1.6,0-2.9,0-4.2,0.1l-1,0c-0.9,0-1.8,0-2.6,0.1c-1.1,0-2.2,0-3.4,0h-2c0.1-0.4,0.3-0.8,0.5-1.3c0.5-1.3,1.3-2.7,2.3-4
			c1-1.3,2.2-2.5,3.5-3.4c1.2-0.9,2.5-1.3,4.1-1.3c2.4,0,4.3,0.7,5.6,2.1c1.4,1.4,2.1,3.1,2.1,5.1C287.7,56.5,287.6,56.9,287.6,56.9
			 M297.5,76.6c-0.7,2.1-2.1,3.8-4.3,5.3c-2.2,1.5-4.8,2.2-7.7,2.2c-2.8,0-5.2-0.5-7.3-1.5c-2.1-1-3.8-2.4-5.2-4.1
			c-1.4-1.7-2.5-3.8-3.2-6.1c-0.7-2.3-1.1-4.8-1.1-7.3c0-0.7,0-1.3,0.1-1.9c0-0.1,0-0.3,0-0.4h31.7l-0.1-1.6c-0.2-2.9-0.9-5.5-2-7.7
			c-1.1-2.2-2.7-4-4.5-5.5c-1.8-1.4-4-2.5-6.4-3.2c-2.4-0.7-5-1-7.6-1c-3.4,0-6.5,0.7-9.3,2.1c-2.8,1.4-5.1,3.3-7,5.6
			c-1.9,2.3-3.4,4.8-4.4,7.7c-1,2.8-1.6,5.7-1.6,8.6c0,3.5,0.6,6.9,1.7,10c1.1,3.2,2.7,6,4.7,8.3c2.1,2.4,4.6,4.3,7.5,5.6
			c2.9,1.3,6.2,2,9.7,2c2.9,0,5.5-0.5,7.9-1.6c2.3-1,4.4-2.4,6.1-4c1.7-1.6,3-3.4,4-5.3c1-1.9,1.6-3.7,1.9-5.2l0.3-1.4l-3.5-0.9
			L297.5,76.6z"/>
		<path class="st0" d="M366.7,49.5c-2.8,2.7-6.9,4.2-12.4,4.5l0,0c-0.9,0.1-2.1,0.1-3.5,0.1h-4v-7.8c0-2.6,0-5.2,0-7.7
			c0-2.7,0.1-5.2,0.1-7.4c0.1-1.3,0.1-2.2,0.2-2.8c0-0.7,0.1-1.3,0.1-1.7l0,0c0-0.4,0.1-0.7,0.1-1c0,0,0-0.1,0-0.1
			c0.4-0.1,0.9-0.1,1.4-0.2c1.1-0.1,2.3-0.2,3.6-0.2c4.3,0,7.9,0.6,10.7,1.8c2.2,1,4.1,2.6,5.6,4.9c1.5,2.3,2.3,4.9,2.3,7.8
			C370.8,43.5,369.5,46.8,366.7,49.5 M366.8,86.8c-1.9,1-3.9,1.6-6,1.9c-2.2,0.3-4.2,0.4-6,0.4c-2,0-3.5-0.2-4.5-0.6
			c-0.9-0.4-1.6-0.8-2-1.3c-0.6-0.8-1-1.9-1.1-3.1c-0.2-1.5-0.3-3.5-0.3-5.9c0-1,0-2.3,0-3.9c0-1.4,0-3.1,0-5V58.6h8
			c1.8,0,3.4,0.1,4.8,0.2c1.3,0.2,2.6,0.4,4,0.9c1.6,0.5,3.1,1.3,4.5,2.2c1.3,0.9,2.5,2,3.5,3.3c1,1.3,1.8,2.7,2.3,4.2
			c0.6,1.5,0.8,3.1,0.8,4.7c0,3-0.7,5.6-2,7.7C371.3,83.8,369.3,85.5,366.8,86.8 M382.7,59.6c-1.9-1.6-4.1-2.9-6.6-3.8
			c-0.7-0.3-1.4-0.5-2.1-0.7c2.5-1,4.7-2.4,6.5-4.1c3.1-2.9,4.6-6.7,4.6-11.4c0-4.2-1.2-7.8-3.6-10.6c-2.3-2.7-5.3-4.7-8.9-6.1
			c-2.2-0.8-4.5-1.4-6.9-1.7c-2.3-0.3-4.8-0.4-7.3-0.4h-34.6v3.8l1.3,0.1c1.6,0.2,2.9,0.4,3.8,0.7c0.8,0.3,1.5,0.8,2.4,1.7l0,0
			c0.1,0.1,0.3,0.4,0.5,1.2c0.2,0.8,0.4,1.7,0.6,2.8c0.2,1.1,0.3,2.2,0.3,3.3c0.1,1.2,0.1,2.3,0.1,3.5c0,1.9,0,3.6,0,5.2
			c0,1.4,0,2.9,0,4.3v15c0,2,0,3.9,0,5.6c0,1.3,0,2.5-0.1,3.7l0,1.4c0,1.5,0,2.7,0,3.7c0,1,0,2-0.1,3.1c-0.1,1-0.2,2-0.3,2.9
			c-0.2,0.9-0.3,1.7-0.5,2.4c-0.2,0.7-0.4,1-0.5,1.1c-0.8,0.8-1.8,1.5-3,2c-1.4,0.5-2.8,0.9-4.3,1.2l-1.3,0.2v3.8h35.4
			c2.9,0,6-0.1,9-0.3c3.2-0.2,6.2-0.8,8.8-1.7c1.6-0.6,3.1-1.4,4.7-2.5c1.5-1.1,3-2.4,4.2-3.9c1.3-1.5,2.3-3.3,3.1-5.4
			c0.8-2,1.2-4.3,1.2-6.8c0-2.8-0.6-5.4-1.8-7.6C386.2,63.1,384.6,61.2,382.7,59.6"/>
		<path class="st0" d="M405.4,76c1.1-1.2,2.5-2.4,4-3.4c1.6-1.1,3.3-2.1,5-3c0.8-0.4,1.5-0.8,2.2-1.2v12.1c0,0.7-0.2,1.2-0.7,1.6
			l0,0l0,0c-0.9,0.9-1.9,1.5-3,1.9c-1.2,0.3-2.5,0.5-4.1,0.5c-1.5,0-2.6-0.5-3.5-1.5c-0.9-1.1-1.4-2.2-1.4-3.6
			C404,78.2,404.4,77.1,405.4,76 M434.4,82.1c-0.2,0.7-0.5,1.2-1,1.6c-0.4,0.4-1.2,0.6-2.4,0.6c-0.9,0-1.7-0.3-2.5-1
			c-0.4-0.4-1-1.4-1-4.6c0-2.3,0-4.3,0-6c0-1.9,0-3.7,0-5.4c0-1.8,0-3.6,0-5.4c0-2,0-4.2,0-6.3c0-1.1,0-2.3-0.1-3.4
			c-0.1-1.4-0.3-2.3-0.7-3c-0.8-1.5-2.1-2.8-3.8-3.8c-1.7-1-3.6-1.5-5.6-1.5c-1,0-2.2,0.2-3.7,0.6c-1.4,0.4-2.9,0.9-4.6,1.6
			c-1.6,0.7-3.4,1.5-5.2,2.4c-1.8,0.9-3.6,1.9-5.3,2.8l0,0l0,0c-0.5,0.3-1.1,0.7-1.8,1c-0.8,0.4-1.5,1-2.2,1.5
			c-0.7,0.6-1.3,1.3-1.8,2.1c-0.5,0.9-0.8,1.9-0.8,2.9c0,1.4,0.5,2.6,1.6,3.6c1,1,2.3,1.5,3.8,1.5c1.4,0,2.8-0.5,4-1.4
			c1.7-1.3,2-2.7,2-3.6v-4.3c0-0.1,0.1-0.2,0.3-0.5c0.4-0.4,0.9-0.9,1.6-1.4c0.7-0.5,1.5-0.9,2.3-1.2c0.9-0.3,1.7-0.4,2.6-0.4
			c1.4,0,2.4,0.2,3.2,0.5c0.8,0.4,1.5,0.7,1.9,1.1c0.5,0.5,0.7,0.8,0.8,1c0.1,0.2,0.2,0.4,0.2,0.5v8.9c-0.5,0.3-1,0.5-1.6,0.8
			c-1,0.5-2,1.1-3.3,1.8c-1.2,0.7-2.7,1.5-4.4,2.5c-1.7,1-3.7,2.2-5.8,3.5c-2.3,1.4-4.2,3.1-5.8,4.8c-1.7,2-2.6,4.1-2.6,6.2
			c0,1.9,0.3,3.6,1,4.9c0.6,1.4,1.5,2.5,2.5,3.4c1,0.9,2.2,1.5,3.5,1.9c1.2,0.3,2.4,0.5,3.6,0.5c1.9,0,3.8-0.3,5.4-0.9
			c1.6-0.6,3.1-1.4,4.4-2.4c1.3-1,2.4-2,3.4-3.1c0,0,0,0,0.1-0.1c0.5,1.9,1.4,3.4,2.8,4.4c2,1.5,4.3,2.2,6.8,2.2
			c1.6,0,3-0.3,4.4-0.8c1.3-0.6,2.5-1.4,3.5-2.5c0.9-1,1.7-2.2,2.3-3.5c0.6-1.3,0.9-2.7,1-4.1L438,81h-3.3L434.4,82.1z"/>
		<path class="st0" d="M469.3,82.7l-3-1.5l-0.7,1c-0.8,1.1-1.7,1.9-2.7,2.4c-1,0.5-2.4,0.8-4,0.8c-1.9,0-3.4-0.6-4.5-1.8
			c-1.2-1.2-1.7-3.2-1.7-6.1v-24H467l4.6-8.9h-19.1v-8.4h-2.9l-15,14.1v3.2h7.2c0,4,0,8.3-0.1,13c-0.1,5.5-0.1,11.3-0.1,17.3
			c0,1.3,0.4,2.6,1.1,3.8c0.7,1.1,1.6,2.2,2.7,3.1c1.1,0.9,2.4,1.6,3.8,2.1c1.4,0.5,2.9,0.7,4.4,0.7c2.2,0,4.2-0.3,5.9-0.8
			c1.7-0.5,3.2-1.3,4.5-2.3c1.3-1,2.3-2.1,3.1-3.3c0.7-1.1,1.3-2.3,1.8-3.3L469.3,82.7z"/>
		<path class="st0" d="M518.7,89.6c-0.6-0.1-1.2-0.1-1.8-0.2c-0.6-0.1-1.2-0.2-1.7-0.4c-0.4-0.1-0.7-0.2-0.9-0.4c0,0,0,0,0,0V60
			c0-2.2-0.2-4.3-0.6-6.2c-0.4-2-1.1-3.8-2.1-5.2c-1-1.5-2.4-2.7-4.1-3.6c-1.7-0.8-3.7-1.3-6.1-1.3c-2.4,0-4.6,0.4-6.7,1.2
			c-2,0.8-3.7,1.7-5.3,2.8c-1.3,1-2.5,2-3.4,3.1l0.3-30.7h-2.6l-14.3,6.4V29l0.7,0.4c0.9,0.5,1.8,1,2.7,1.5c0.8,0.4,1.4,0.7,1.8,1.1
			l0.1,0l0.1,0c0.2,0.1,0.3,0.2,0.3,0.2c0,0.1,0,0.3,0,0.6v55c0,0.5-0.1,0.7-0.7,0.9c-1.1,0.3-2.4,0.6-3.8,0.7l-1.4,0.1v3.9h22.5
			v-3.7l-1.2-0.2c-0.7-0.1-1.4-0.2-2.1-0.3c-0.5-0.1-1-0.1-1.5-0.3c-0.3-0.1-0.5-0.2-0.7-0.4c0,0,0-0.1,0-0.3V58.6
			c0-0.3,0.1-0.7,0.2-1.2c0.2-0.7,0.4-0.9,0.4-0.9c0.9-1.2,2-2.2,3.4-2.9c1.4-0.7,3.2-1.1,5.3-1.1c1.6,0,2.8,0.3,3.8,0.8
			c0.9,0.5,1.7,1.2,2.2,2.2c0.6,1,1,2.2,1.2,3.6c0.2,1.5,0.4,3.2,0.4,5v24.2c0,0.2,0,0.4-0.6,0.5c-1.1,0.3-2.5,0.5-4.2,0.6l-1.4,0.1
			v4H520v-3.7L518.7,89.6z"/>
		<path class="st0" d="M115.4,148.7c-1.8-2.3-4.5-4.1-7.8-5.4c-0.9-0.3-1.8-0.6-2.6-0.9c-0.8-0.3-1.6-0.5-2.4-0.8
			c-0.7-0.2-1.5-0.5-2.4-0.8c-0.8-0.3-1.7-0.6-2.6-1l0,0c-2.3-0.8-4.2-2-5.6-3.4c-1.4-1.4-2-3.1-2-5.5c0-1.5,0.3-2.8,0.8-4
			c0.5-1.1,1.2-2.1,2.1-2.9c0.9-0.8,1.9-1.4,3.1-1.8c1.2-0.4,2.5-0.6,3.9-0.6c1.7,0,3.3,0.4,4.7,1c1.4,0.7,2.7,1.6,3.8,2.8
			c1.1,1.1,2.1,2.5,3,3.9c0.9,1.5,1.6,3,2.1,4.5l0.2,0.5h2.1v-14.6h-2l-0.2,0.4c-0.4,0.5-0.8,1.1-1.2,1.6c-0.1,0.2-0.2,0.3-0.3,0.4
			c-0.1-0.1-0.2-0.1-0.3-0.2c-0.5-0.4-1.3-0.8-2.3-1.2c-1-0.4-2.3-0.8-3.8-1.2c-1.6-0.4-3.5-0.6-5.6-0.6c-2.3,0-4.6,0.3-6.7,0.9
			c-2.1,0.6-4,1.6-5.7,2.9c-1.7,1.3-3,2.9-4,4.8c-1,1.9-1.5,4.3-1.5,6.9c0,1.6,0.3,3.1,0.8,4.5c0.5,1.4,1.3,2.7,2.2,3.9
			c0.9,1.2,1.9,2.2,3.1,3.1c1.2,0.9,2.4,1.5,3.7,2c1.1,0.4,2.1,0.8,2.8,1c0.7,0.2,1.5,0.5,2.2,0.8c0.8,0.3,1.6,0.5,2.4,0.8
			c0.9,0.3,1.8,0.6,2.9,1.1c1.1,0.4,2.1,0.9,3.1,1.4c0.9,0.5,1.7,1.1,2.4,1.7c0.7,0.7,1.2,1.4,1.6,2.3c0.4,0.9,0.6,2,0.6,3.2
			c0,3-1,5.4-3,7.1c-2,1.8-4.7,2.7-8,2.7c-1.1,0-2.3-0.2-3.6-0.6c-1.3-0.4-2.3-0.8-3.1-1.2c-0.7-0.4-1.5-1-2.3-1.7
			c-0.8-0.8-1.6-1.7-2.4-2.7c-0.8-1-1.5-2.1-2.1-3.3c-0.6-1.2-1.2-2.4-1.6-3.6l-0.2-0.5h-2.1l0.2,15.6h1.8l0.2-0.3
			c0.4-0.5,0.8-1,1.2-1.6c0.2-0.2,0.3-0.4,0.4-0.5c0.1,0.1,0.3,0.1,0.5,0.3c0.6,0.4,1.4,0.7,2.6,1.2c1.1,0.4,2.5,0.8,4.2,1.1
			c1.7,0.3,3.7,0.4,6.1,0.4c2.7,0,5.3-0.3,7.6-0.9c2.3-0.6,4.4-1.6,6.1-3c1.7-1.3,3.1-3,4-4.8c1-1.9,1.5-4.1,1.5-6.4
			C118.2,154.1,117.3,151.1,115.4,148.7"/>
		<path class="st0" d="M147.1,160.6c-0.6,1.7-1.3,3.3-2.2,4.5c-0.9,1.2-2,2.2-3.2,2.9c-1.1,0.7-2.3,1-3.5,1c-1.4,0-2.6-0.2-3.4-0.7
			c-0.9-0.5-1.5-1.1-2-1.9c-0.5-0.8-0.9-1.7-1.1-2.6c-0.2-1-0.4-2-0.5-3c0-1.1-0.1-2.1-0.1-3.2v-4.5c0-0.8,0-1.7,0-2.8c0-1,0-2,0-3
			c0,0,0-0.2,0.4-1c0.3-0.5,0.8-1.1,1.4-1.6c0.6-0.5,1.4-1,2.3-1.4c0.9-0.4,1.9-0.6,2.9-0.6c1.6,0,3.1,0.3,4.3,0.9
			c1.2,0.6,2.2,1.5,3,2.5c0.8,1.1,1.4,2.3,1.8,3.8c0.4,1.5,0.6,3.1,0.6,4.8C148,156.9,147.7,158.8,147.1,160.6 M152.6,141.8
			c-1.1-1.5-2.6-2.8-4.3-3.8c-1.7-1-3.8-1.4-6.1-1.4c-1.5,0-2.8,0.3-4.1,0.8c-1.2,0.5-2.3,1.2-3.4,2c-1,0.8-2,1.7-2.8,2.7
			c-0.3,0.4-0.6,0.7-0.9,1.1v-6.6h-1.3l-11.1,4.3v1.5l0.5,0.2c0.6,0.2,1.3,0.6,2.2,1c0.9,0.4,1.6,0.8,2,1c0.2,0.2,0.3,0.2,0.3,0.3
			c0,0.1,0.1,0.2,0.1,0.6v39.1c0,0,0,0.2-0.3,0.3c-0.3,0.2-0.8,0.4-1.3,0.6c-0.6,0.2-1.2,0.3-1.8,0.4c-0.6,0.1-1.2,0.2-1.6,0.2
			l-0.7,0.1v2.3h19v-2.3l-0.7-0.1c-0.5,0-1.1-0.1-1.7-0.1c-0.6,0-1.2-0.1-1.7-0.2c-0.5-0.1-1-0.2-1.3-0.4c-0.2-0.1-0.3-0.2-0.3-0.4
			v-3.2c0-1.3,0-2.7,0-4.2l0-0.7c0-1.2,0-2.3-0.1-3.3c0-0.8,0-1.4,0-1.9c0.6,0.1,1.2,0.2,1.7,0.2c0.8,0,1.7,0.1,2.5,0.1
			c3.1,0,6-0.5,8.5-1.4c2.5-1,4.7-2.3,6.5-4c1.8-1.7,3.1-3.7,4.1-6.1c1-2.3,1.4-4.9,1.4-7.6c0-1.9-0.3-3.9-0.8-5.8
			C154.6,145.1,153.7,143.3,152.6,141.8"/>
		<path class="st0" d="M175.4,163.2c0,0.6-0.2,1-0.6,1.4l0,0l0,0c-0.7,0.7-1.5,1.2-2.3,1.4c-0.9,0.3-1.9,0.4-3,0.4
			c-1.1,0-2-0.4-2.7-1.2c-0.7-0.9-1.1-1.8-1.1-2.8c0-1,0.4-1.9,1.1-2.8c0.8-0.9,1.8-1.8,3-2.5c1.2-0.8,2.4-1.5,3.6-2.2
			c0.7-0.4,1.4-0.8,2-1.2V163.2z M188.2,164.4c-0.1,0.6-0.4,1-0.8,1.3c-0.4,0.3-1,0.5-1.9,0.5c-0.7,0-1.4-0.3-2-0.8
			c-0.4-0.4-0.8-1.3-0.8-3.6c0-1.7,0-3.1,0-4.4c0-1.3,0-2.6,0-3.9c0-1.3,0-2.6,0-3.9c0-1.4,0-3,0-4.6c0-0.8,0-1.6-0.1-2.5
			c-0.1-1-0.2-1.6-0.4-2c-0.5-1.1-1.4-2-2.6-2.7c-1.2-0.7-2.5-1.1-3.9-1.1c-0.7,0-1.5,0.1-2.6,0.5c-1,0.3-2.1,0.7-3.3,1.2
			c-1.2,0.5-2.4,1.1-3.7,1.7c-1.3,0.7-2.6,1.4-3.8,2.1l0,0c-0.4,0.2-0.8,0.5-1.3,0.8c-0.5,0.3-1,0.7-1.5,1.1
			c-0.5,0.4-0.9,0.9-1.2,1.5c-0.4,0.6-0.5,1.2-0.5,2c0,0.9,0.3,1.7,1,2.4c0.7,0.7,1.5,1,2.5,1c1,0,1.9-0.3,2.7-0.9
			c0.9-0.7,1.3-1.5,1.3-2.4v-3.2c0,0,0-0.2,0.3-0.5c0.3-0.3,0.7-0.7,1.2-1.1c0.5-0.4,1.1-0.7,1.8-0.9c0.6-0.2,1.3-0.3,2-0.3
			c1,0,1.8,0.1,2.4,0.4c0.6,0.3,1.1,0.6,1.4,0.9c0.3,0.3,0.6,0.6,0.7,0.9c0.1,0.2,0.2,0.4,0.2,0.4v6.8c-0.4,0.2-0.8,0.5-1.3,0.7
			c-0.6,0.3-1.4,0.8-2.4,1.3c-0.9,0.5-2,1.1-3.2,1.8c-1.2,0.7-2.6,1.6-4.2,2.6c-1.6,1-3,2.2-4.1,3.5c-1.2,1.4-1.8,2.8-1.8,4.3
			c0,1.4,0.2,2.5,0.7,3.4c0.4,0.9,1,1.7,1.8,2.3c0.7,0.6,1.5,1,2.4,1.3c0.8,0.2,1.7,0.3,2.5,0.3c1.4,0,2.6-0.2,3.8-0.6
			c1.1-0.4,2.1-1,3.1-1.7c0.9-0.7,1.7-1.4,2.4-2.2c0.2-0.2,0.3-0.4,0.4-0.5c0.3,1.6,1,2.8,2,3.6c1.4,1,3,1.6,4.7,1.6
			c1.1,0,2.1-0.2,3-0.6c0.9-0.4,1.7-1,2.4-1.7c0.7-0.7,1.2-1.6,1.6-2.5c0.4-0.9,0.6-1.9,0.7-2.9l0-0.8h-1.8L188.2,164.4z"/>
		<path class="st0" d="M233.4,165.3c-0.7,0.5-1.4,0.9-2.1,1.3c-0.7,0.3-1.5,0.6-2.4,0.8c-0.8,0.2-1.8,0.3-3,0.3
			c-1.1,0-2-0.2-2.9-0.6c-0.9-0.4-1.7-0.9-2.3-1.6c-0.6-0.7-1.1-1.5-1.5-2.4c-0.3-0.9-0.5-1.9-0.5-3c0-1.1,0.2-2.1,0.5-3
			c0.3-1,0.8-1.9,1.3-2.7c0.5-0.8,1.1-1.6,1.8-2.3c0.5-0.5,1-1,1.4-1.4c0.1,0.1,0.1,0.1,0.2,0.2c0.2,0.2,0.5,0.4,0.7,0.6
			c0.5,0.5,1.1,1,1.7,1.5c0.6,0.5,1.1,1.1,1.7,1.6c0.5,0.5,1,1,1.3,1.5c0.7,0.9,1.3,1.6,1.8,2.2c0.6,0.7,1.1,1.3,1.5,1.9
			c0.5,0.7,0.9,1.3,1.4,1.9c0.3,0.5,0.7,1.1,1.1,1.7C234.5,164.4,233.9,164.9,233.4,165.3 M223,134.9c0.1-0.5,0.3-0.9,0.6-1.3
			c0.2-0.4,0.6-0.7,1-0.9c0.4-0.2,0.8-0.3,1.3-0.3c0.6,0,1.2,0.2,1.7,0.5c0.6,0.4,1,0.8,1.4,1.4c0.4,0.6,0.7,1.3,0.9,2.1
			c0.2,0.8,0.3,1.6,0.3,2.4c0,1.5-0.2,2.7-0.6,3.7c-0.3,0.8-0.8,1.6-1.5,2.4c-0.8-0.7-1.4-1.3-2.1-1.8c-0.7-0.6-1.3-1.4-2-2.2
			c-0.5-0.7-0.9-1.4-1.1-2c-0.2-0.6-0.3-1.5-0.3-2.6C222.8,135.8,222.9,135.4,223,134.9 M257.6,163.9c-0.2,0.4-0.6,0.9-1,1.4
			c-0.4,0.5-0.9,0.9-1.4,1.4c-0.5,0.4-1.1,0.8-1.7,1c-0.6,0.3-1.2,0.4-1.8,0.4c-1.3,0-2.4-0.3-3.3-0.8c-0.9-0.6-1.9-1.4-2.8-2.4
			c-1-1-1.8-2-2.5-2.9c-0.4-0.5-1-1.3-1.4-1.8l0.8-0.9l0,0c0,0,2.7-3.4,4.1-4.8c1.4-1.4,2.8-2.6,4.4-3.6c1.5-0.9,3.2-1.5,5-1.8
			l0.7-0.1v-2.2l-21.4,0.5v2.2l0.7,0c0.9,0,1.8,0.1,2.6,0.1c0.8,0,1.5,0.2,2.2,0.4c0.6,0.2,1.1,0.5,1.4,0.8c0.3,0.3,0.4,0.8,0.4,1.4
			c0,0.3-0.1,0.8-0.4,1.7c-0.3,0.8-0.8,1.7-1.3,2.6c-0.2,0.4-0.4,0.7-0.5,0.9c-0.1,0.2-0.2,0.4-0.3,0.5c-0.5-0.8-1.1-1.6-1.7-2.5
			c-0.9-1.3-1.9-2.5-3-3.8c-1-1.1-1.9-2.1-2.9-3.1c-0.8-0.8-1.6-1.5-2.4-2.3c0.2-0.2,0.5-0.3,0.7-0.5c0.8-0.5,1.5-1.2,2.3-2
			c0.7-0.8,1.4-1.7,2-2.7c0.6-1.1,0.9-2.3,0.9-3.7c0-1.3-0.3-2.5-0.8-3.5c-0.5-1-1.2-1.8-2.1-2.5c-0.8-0.6-1.8-1.1-2.9-1.5
			c-1.1-0.3-2.1-0.5-3.2-0.5c-1.3,0-2.5,0.2-3.8,0.7c-1.2,0.4-2.3,1.1-3.3,1.9c-1,0.8-1.8,1.8-2.5,2.9c-0.6,1.2-1,2.4-1,3.8
			c0,1.3,0.2,2.5,0.5,3.5c0.3,1,0.8,1.9,1.4,2.7c0.6,0.8,1.2,1.6,2,2.3c0.5,0.5,1,1,1.6,1.6c-1,0.5-2,1.1-3.1,1.8
			c-1.4,0.9-2.6,1.9-3.7,3c-1.1,1.1-2.1,2.4-2.8,3.8c-0.7,1.4-1.1,3-1.1,4.7c0,1.5,0.3,2.9,0.8,4.2c0.5,1.3,1.3,2.5,2.4,3.5
			c1,1,2.3,1.8,3.8,2.3c1.5,0.5,3.2,0.8,5,0.8c1.6,0,3.2-0.3,4.7-0.8c1.5-0.5,2.8-1.2,4-2c1.2-0.8,2.2-1.7,3.2-2.7
			c0.6-0.6,1-1.1,1.4-1.6c0.5,0.7,1,1.4,1.6,2.1c0.8,1,1.7,1.9,2.7,2.7c1,0.8,2.1,1.4,3.2,1.9c1.2,0.5,2.4,0.7,3.8,0.7
			c1.4,0,2.8-0.3,4.1-0.9c1.3-0.6,2.5-1.3,3.5-2.2c1-0.9,1.9-1.8,2.7-2.8c0.7-1,1.3-2,1.5-2.8l0.2-0.7l-1.8-0.8L257.6,163.9z"/>
		<path class="st0" d="M338.6,122v-2.2h-19.1v2.2l0.7,0.1c2.1,0.3,3.8,0.9,4.9,1.6c1.1,0.7,1.8,1.7,2.2,2.8l0,0
			c0.3,0.9,0.5,2.2,0.6,3.8c0,1.7,0.1,3.6,0.1,5.4v21.9l-32.3-37.8h-15.5v2.2l0.7,0.1c0.7,0.1,1.5,0.2,2.3,0.4
			c0.7,0.2,1.4,0.5,2,0.9c0.6,0.4,1.2,1,1.6,1.8c0.5,0.8,0.8,1.8,0.9,3c0,1.4,0.1,2.5,0.1,3.4v8.6c0,3,0,6-0.1,8.8
			c0,2.7-0.1,5.1-0.2,7.2c-0.1,2.6-0.2,4.9-0.4,6.9c-0.2,1.8-0.6,3.1-1.1,4l0,0c-0.6,0.9-1.3,1.5-2.3,1.9c-1.1,0.4-2.1,0.7-3.2,0.8
			l-0.7,0.1v2.2h18.9v-2.2l-0.7-0.1c-1.8-0.2-3.3-0.6-4.3-1.1c-1-0.5-1.6-1.1-2.1-2.1l0,0c-0.4-0.8-0.7-2.2-0.8-4
			c-0.1-1.9-0.2-4.1-0.2-6.4v-27.8c2.7,3,5.3,6,7.7,8.8c3,3.5,6,6.9,8.8,10.3c3,3.5,6.1,7.2,9.4,11c3.5,4.1,7.2,8.4,10.9,12.7l0,0
			l0,0c0.6,0.6,1.2,0.9,1.8,0.9c0.6,0,0.9-0.2,1.1-0.4c0.3-0.3,0.4-0.6,0.4-1v-4.6c0-1.6,0-3.4,0-5.1c0-1.7,0-3.4,0-5v-4.5
			c0-3.3,0-6.2,0.1-8.8c0.1-2.9,0.2-5.2,0.2-7.1c0.1-2.3,0.2-4.3,0.3-6.1c0.1-2.2,0.4-3.2,0.6-3.6l0,0l0,0c0.5-1.2,1.2-2.1,2.1-2.7
			c1-0.6,2.3-1,3.9-1.2L338.6,122z"/>
		<path class="st0" d="M353.3,163.2c0,0.6-0.2,1-0.6,1.4l0,0c-0.7,0.7-1.5,1.2-2.3,1.4c-0.9,0.3-1.9,0.4-3,0.4c-1.1,0-2-0.4-2.7-1.2
			c-0.7-0.8-1.1-1.8-1.1-2.8c0-1,0.4-1.9,1.1-2.8c0.8-0.9,1.8-1.8,3-2.5c1.2-0.8,2.4-1.5,3.6-2.2c0.7-0.4,1.4-0.8,2-1.2V163.2z
			 M368,163.8h-1.8l-0.2,0.6c-0.1,0.6-0.4,1-0.8,1.3c-0.4,0.3-1,0.5-1.9,0.5c-0.7,0-1.4-0.3-2-0.8c-0.4-0.4-0.8-1.3-0.8-3.6
			c0-1.7,0-3.1,0-4.4c0-1.3,0-2.7,0-3.9c0-1.3,0-2.6,0-3.9c0-1.4,0-2.9,0-4.6c0-0.8,0-1.7-0.1-2.5c-0.1-1-0.2-1.6-0.4-2.1
			c-0.5-1.1-1.4-2-2.6-2.7c-1.2-0.7-2.5-1.1-3.9-1.1c-0.7,0-1.5,0.2-2.6,0.5c-1,0.3-2.1,0.7-3.3,1.2c-1.2,0.5-2.4,1-3.7,1.7
			c-1.3,0.7-2.6,1.4-3.8,2.1l0,0c-0.4,0.2-0.8,0.5-1.3,0.8c-0.5,0.3-1,0.7-1.5,1.1c-0.5,0.4-0.9,0.9-1.2,1.5
			c-0.4,0.6-0.5,1.2-0.5,1.9c0,0.9,0.3,1.7,1,2.4c0.7,0.7,1.5,1,2.5,1c1,0,1.9-0.3,2.7-0.9c0.9-0.7,1.3-1.5,1.3-2.4v-3.2
			c0,0,0-0.2,0.3-0.5c0.3-0.3,0.7-0.7,1.2-1.1c0.5-0.4,1.1-0.7,1.8-0.9c0.6-0.2,1.3-0.3,2-0.3c1,0,1.8,0.1,2.4,0.4
			c0.6,0.3,1.1,0.6,1.4,0.9c0.3,0.3,0.6,0.6,0.7,0.9c0.1,0.2,0.2,0.4,0.2,0.4v6.8c-0.4,0.2-0.8,0.5-1.3,0.7
			c-0.6,0.3-1.4,0.7-2.4,1.3c-0.9,0.5-1.9,1.1-3.2,1.8c-1.2,0.7-2.6,1.6-4.2,2.6c-1.6,1-3,2.2-4.1,3.5c-1.2,1.4-1.8,2.8-1.8,4.3
			c0,1.4,0.2,2.5,0.7,3.4c0.4,0.9,1,1.7,1.8,2.3c0.7,0.6,1.5,1,2.4,1.3c0.8,0.2,1.7,0.3,2.5,0.3c1.4,0,2.6-0.2,3.8-0.7
			c1.1-0.4,2.2-1,3.1-1.7c0.9-0.7,1.7-1.4,2.4-2.2c0.2-0.2,0.3-0.4,0.4-0.5c0.3,1.6,1,2.8,2,3.6c1.4,1,3,1.6,4.7,1.6
			c1.1,0,2.1-0.2,3-0.6c0.9-0.4,1.7-1,2.4-1.8c0.7-0.7,1.2-1.6,1.6-2.5c0.4-0.9,0.6-1.9,0.7-2.9L368,163.8z"/>
		<path class="st0" d="M382.8,169.8c-0.4,0-0.9-0.1-1.2-0.2c-0.3-0.1-0.6-0.2-0.8-0.3c0,0-0.2-0.1-0.3-0.5v-32.2h-1.3l-10.2,3.3v1.5
			l0.5,0.2c0.6,0.2,1.2,0.5,1.8,0.7c0.5,0.3,1,0.5,1.4,0.8c0.2,0.1,0.3,0.2,0.3,0.3c0.1,0.2,0.1,0.5,0.1,0.8v24.2
			c0,0.2-0.1,0.4-0.2,0.5c-0.2,0.2-0.5,0.4-0.9,0.5c-0.4,0.1-0.8,0.2-1.3,0.3c-0.6,0.1-1.1,0.1-1.7,0.2l-0.7,0.1v2.2H385v-2.1
			l-0.6-0.1C383.9,169.9,383.4,169.9,382.8,169.8"/>
		<path class="st0" d="M376.5,130.8c1.3,0,2.4-0.4,3.3-1.3c0.9-0.9,1.3-2,1.3-3.3c0-1.3-0.4-2.4-1.3-3.2c-0.9-0.8-2-1.3-3.3-1.3
			s-2.4,0.4-3.3,1.3c-0.9,0.9-1.3,1.9-1.3,3.2c0,1.2,0.5,2.3,1.4,3.2C374.1,130.4,375.2,130.8,376.5,130.8"/>
		<path class="st0" d="M403,169.8c-0.6,0-1.1-0.1-1.5-0.2c-0.3-0.1-0.4-0.1-0.5-0.3c0,0-0.1-0.2-0.1-0.5v-49.1h-1.4l-10.7,3.5v1.5
			l0.5,0.2c0.5,0.2,1.2,0.6,2,1.1c0.8,0.5,1.5,0.8,1.9,1.1c0.2,0.1,0.3,0.2,0.3,0.3c0,0.1,0.1,0.2,0.1,0.6v40.6
			c0,0.4-0.2,0.7-0.6,0.9c-0.4,0.2-1.5,0.4-4,0.6l-0.7,0v2.3h18v-2.3l-0.7-0.1C404.5,169.9,403.7,169.9,403,169.8"/>
		<path class="st0" d="M431.4,154.7c-1.6-1.8-3.5-2.9-5.8-3.5c-0.9-0.2-2-0.5-3.2-0.7c-1.3-0.3-2.4-0.5-3.4-0.7
			c-1.4-0.3-2.5-0.9-3.5-1.6c-0.8-0.6-1.2-1.6-1.2-3.1c0-1,0.2-1.8,0.5-2.5c0.3-0.7,0.8-1.3,1.3-1.8c0.5-0.5,1.1-0.8,1.8-1.1
			c0.7-0.3,1.4-0.4,2.1-0.4c1.2,0,2.3,0.2,3.2,0.6c0.9,0.4,1.7,1,2.5,1.8c0.8,0.8,1.5,1.8,2.1,3c0.6,1.2,1.3,2.5,2,3.9l0.3,0.6
			l1.8-0.5l-1-9.9l-0.5-0.2c-1.4-0.5-2.9-1-4.4-1.3c-1.6-0.4-3.4-0.5-5.4-0.5c-1.6,0-3.2,0.2-4.6,0.7c-1.5,0.5-2.7,1.2-3.8,2.1
			c-1.1,0.9-2,2-2.7,3.3c-0.7,1.3-1,2.7-1,4.3c0,2.3,0.6,4.3,1.8,5.9c1.2,1.6,2.8,2.8,4.7,3.5c0.9,0.3,2,0.7,3.2,0.9
			c1.2,0.3,2.4,0.5,3.7,0.8c1.4,0.3,2.5,0.9,3.3,1.7c0.8,0.8,1.2,1.8,1.2,3.1c0,2.5-0.6,4.3-1.8,5.4c-1.2,1.2-2.8,1.7-4.8,1.7
			c-1.4,0-2.6-0.3-3.6-0.9c-1-0.6-1.9-1.4-2.7-2.4c-0.8-1-1.4-2.1-2-3.3c-0.6-1.2-1-2.4-1.4-3.5l-0.2-0.5h-1.9V170l0.5,0.2
			c1.6,0.7,3.4,1.3,5.2,1.7c1.9,0.4,3.9,0.6,6,0.6c1.8,0,3.5-0.2,5.2-0.6c1.7-0.4,3.2-1.1,4.5-2c1.3-0.9,2.4-2.1,3.2-3.5
			c0.8-1.4,1.2-3.2,1.2-5.1C433.8,158.7,433,156.4,431.4,154.7"/>
	</g>
</g>
</svg>
